<svg xmlns="http://www.w3.org/2000/svg" width="42.663" height="39.764" viewBox="0 0 42.663 39.764">
  <g id="g190" transform="translate(40.723 36.813)">
    <path id="path192" d="M0,0A1,1,0,0,1-1,1H-12.576a1,1,0,0,1-1-1V-8.736a5.836,5.836,0,0,0-5.816-5.843,5.837,5.837,0,0,0-5.819,5.843V0a1,1,0,0,1-1,1H-37.784a1,1,0,0,1-1-1V-14.493a2.95,2.95,0,0,1,.864-2.095l17.964-18.044a.793.793,0,0,1,.564-.235.79.79,0,0,1,.561.235L-.864-16.588A2.95,2.95,0,0,1,0-14.493ZM.507-17.965-17.457-36.009a2.723,2.723,0,0,0-1.933-.8,2.722,2.722,0,0,0-1.935.8L-39.291-17.965a4.927,4.927,0,0,0-1.432,3.472V0a2.945,2.945,0,0,0,2.939,2.951h11.576A2.944,2.944,0,0,0-23.271,0V-8.736a3.888,3.888,0,0,1,3.88-3.9,3.887,3.887,0,0,1,3.877,3.9V0a2.945,2.945,0,0,0,2.937,2.951H-1A2.945,2.945,0,0,0,1.94,0V-14.493A4.923,4.923,0,0,0,.507-17.965" fill="#4d4d4f"/>
  </g>
</svg>
