<svg xmlns="http://www.w3.org/2000/svg" width="42.665" height="39.763" viewBox="0 0 42.665 39.763">
  <g id="g158" transform="translate(42.665 22.321)">
    <path id="path160" d="M0,0V14.491a2.946,2.946,0,0,1-2.943,2.951H-14.516a2.947,2.947,0,0,1-2.943-2.951V5.753a3.879,3.879,0,0,0-3.875-3.891,3.886,3.886,0,0,0-3.881,3.891v8.737a2.939,2.939,0,0,1-2.935,2.951H-39.731a2.945,2.945,0,0,1-2.935-2.951V0a4.918,4.918,0,0,1,1.435-3.471l17.961-18.052a2.729,2.729,0,0,1,1.936-.8,2.7,2.7,0,0,1,1.929.8L-1.435-3.471A4.918,4.918,0,0,1,0,0" fill="#79d379"/>
  </g>
</svg>
