<svg xmlns="http://www.w3.org/2000/svg" width="41.287" height="41.165" viewBox="0 0 41.287 41.165">
  <g id="g194" transform="translate(18.423 34.905)">
    <path id="path196" d="M0,0A16.5,16.5,0,0,1-16.483-16.483,16.5,16.5,0,0,1,0-32.967,16.5,16.5,0,0,1,16.483-16.483,16.5,16.5,0,0,1,0,0M13.731-4.245a18.316,18.316,0,0,0,4.691-12.237A18.443,18.443,0,0,0,0-34.905,18.443,18.443,0,0,0-18.423-16.483,18.443,18.443,0,0,0,0,1.939,18.325,18.325,0,0,0,12.365-2.868L21.493,6.26l1.371-1.371Z" fill="#4d4d4f"/>
  </g>
</svg>
