<svg xmlns="http://www.w3.org/2000/svg" width="39.095" height="38.986" viewBox="0 0 39.095 38.986">
  <g id="g154" transform="translate(17.714 31.676)">
    <path id="path156" d="M0,0A13.978,13.978,0,0,1-13.961-13.961,13.978,13.978,0,0,1,0-27.923,13.977,13.977,0,0,1,13.961-13.961,13.977,13.977,0,0,1,0,0M13.813-2.912a17.646,17.646,0,0,0,3.9-11.049,17.736,17.736,0,0,0-19.74-17.6A17.758,17.758,0,0,0-17.6-15.987,17.736,17.736,0,0,0,0,3.753a17.637,17.637,0,0,0,11.171-4l7.008,7.008a1.876,1.876,0,0,0,2.653-2.653Z" fill="#79d379"/>
  </g>
</svg>
