<svg xmlns="http://www.w3.org/2000/svg" width="46.541" height="46.54" viewBox="0 0 46.541 46.54">
  <g id="Grupo_284" data-name="Grupo 284" transform="translate(-7489.917 -2565.328)">
    <g id="g202" transform="translate(7534.518 2597.222)">
      <path id="path204" d="M0,0A12.721,12.721,0,0,1-12.707,12.707H-29.955A12.721,12.721,0,0,1-42.661,0V-17.248A12.721,12.721,0,0,1-29.955-29.955h17.248A12.721,12.721,0,0,1,0-17.248ZM-12.707-31.895H-29.955A14.663,14.663,0,0,0-44.6-17.248V0A14.662,14.662,0,0,0-29.955,14.645h17.248A14.662,14.662,0,0,0,1.94,0V-17.248A14.663,14.663,0,0,0-12.707-31.895" fill="#4d4d4f"/>
    </g>
    <g id="g206" transform="translate(7514.158 2577.934)">
      <path id="path208" d="M0,0H-1.941V9.695h-9.695v1.941h9.695v9.695H0V11.636H9.695V9.695H0Z" fill="#4d4d4f"/>
    </g>
  </g>
</svg>
