<svg xmlns="http://www.w3.org/2000/svg" width="42.67" height="36.844" viewBox="0 0 42.67 36.844">
  <g id="g198" transform="translate(39.35 18.528)">
    <path id="path200" d="M0,0C-2.027,3.789-10.463,10.887-17.681,16.265a.557.557,0,0,1-.335.112.559.559,0,0,1-.333-.112C-25.568,10.887-34,3.789-36.029,0c-2.837-5.308-1.175-12.1,3.707-15.148a9.362,9.362,0,0,1,4.949-1.441,9.718,9.718,0,0,1,7.8,4.055l1.556,2.091,1.556-2.091a9.721,9.721,0,0,1,7.8-4.055,9.365,9.365,0,0,1,4.949,1.441C1.173-12.1,2.837-5.308,0,0M-2.683-16.793a11.246,11.246,0,0,0-5.975-1.735,11.7,11.7,0,0,0-9.359,4.836,11.7,11.7,0,0,0-9.357-4.836,11.25,11.25,0,0,0-5.976,1.735C-39.088-13.213-41.055-5.285-37.74.913c2.7,5.056,14.111,13.836,18.232,16.907a2.491,2.491,0,0,0,1.492.5,2.5,2.5,0,0,0,1.493-.5C-12.4,14.749-.991,5.969,1.711.913c3.313-6.2,1.348-14.127-4.393-17.707" fill="#4d4d4f"/>
  </g>
</svg>
