<svg xmlns="http://www.w3.org/2000/svg" width="42.669" height="36.844" viewBox="0 0 42.669 36.844">
  <g id="g162" transform="translate(41.06 19.444)">
    <path id="path164" d="M0,0C-2.7,5.053-14.112,13.832-18.233,16.907a2.511,2.511,0,0,1-1.492.493,2.48,2.48,0,0,1-1.492-.493C-25.337,13.832-36.747,5.053-39.449,0c-3.313-6.2-1.352-14.128,4.385-17.705a11.238,11.238,0,0,1,5.976-1.739,11.718,11.718,0,0,1,9.363,4.837,11.676,11.676,0,0,1,9.356-4.837,11.241,11.241,0,0,1,5.976,1.739C1.344-14.128,3.313-6.2,0,0" fill="#79d379"/>
  </g>
</svg>
