<svg xmlns="http://www.w3.org/2000/svg" width="51.29" height="57.176" viewBox="0 0 51.29 57.176">
  <path id="path19063" d="M569.26-7.144c-.171-.029-.7-.117-1.184-.194a13.6,13.6,0,0,1-8.288-5.117,13.278,13.278,0,0,1-2.738-8.2,13.485,13.485,0,0,1,10.564-13.233,15.06,15.06,0,0,1,6.14.06,13.624,13.624,0,0,1,7.593,4.975,13.222,13.222,0,0,1,2.738,8.2A13.125,13.125,0,0,1,580.047-11a13.249,13.249,0,0,1-6.737,3.623,20.083,20.083,0,0,1-4.049.23Zm3.574-2.229a11.5,11.5,0,0,0,9.218-10.606A11.557,11.557,0,0,0,572.448-32a14.542,14.542,0,0,0-4.932.254,11.561,11.561,0,0,0-8.107,8.322,11.547,11.547,0,0,0,8.854,14.04,15.585,15.585,0,0,0,4.57.009Zm-3.7-13.773v-4.61h2.118v7.1h5.731v2.118h-7.849Zm-29.474,7.29a7.38,7.38,0,0,1-5.35-5.178c-.154-.578-.181-3.278-.182-18.146,0-12.195.04-17.666.135-18.127a7.2,7.2,0,0,1,3.87-4.826,9.228,9.228,0,0,1,1.778-.62c.507-.093,5.866-.134,17.068-.133,18.08,0,17.257-.033,18.981.815A7.282,7.282,0,0,1,579.033-59c.825,1.677.813,1.472.815,13.455l0,10.8-1.028-.5-1.028-.5-.065-10.182c-.07-10.883-.045-10.479-.711-11.794a6.741,6.741,0,0,0-2.354-2.35c-1.458-.739-.715-.709-17.7-.709-13.378,0-15.66.026-16.272.186a5.8,5.8,0,0,0-4.384,4.611c-.265,1.254-.272,32.122-.008,33.6a4.987,4.987,0,0,0,3.534,4.337c.754.233,1.178.246,7.875.246h7.078l.141.426a4.122,4.122,0,0,0,.484.9c.189.262.385.547.437.633.14.233-15.112.206-16.189-.029Zm4.433-13.769v-1h11.364l-.079.317c-.044.174-.194.623-.334,1l-.255.68h-10.7Zm0-10.029v-1.059h25.041v2.118H544.095Zm0-10.029v-1h25.041v1.993H544.095Z" transform="translate(-533.463 63.552)" fill="#79d379" stroke="#79d379" stroke-width="1.333"/>
</svg>
