<svg xmlns="http://www.w3.org/2000/svg" width="44.601" height="41.649" viewBox="0 0 44.601 41.649">
  <g id="Grupo_281" data-name="Grupo 281" transform="translate(-400.691 543.545)">
    <g id="g170" transform="translate(435.599 -530.951)">
      <path id="path172" d="M0,0A12.47,12.47,0,0,1-2.556,7.591a12.6,12.6,0,0,1-10.048,5,12.6,12.6,0,0,1-10.047-5A12.47,12.47,0,0,1-25.207,0,12.612,12.612,0,0,1-12.6-12.595,12.612,12.612,0,0,1,0,0" fill="#79d379"/>
    </g>
    <g id="g174" transform="translate(445.292 -504.541)">
      <path id="path176" d="M0,0V1.756a.873.873,0,0,1-.931.889H-43.669a.874.874,0,0,1-.932-.889V0A11.886,11.886,0,0,1-32.715-11.887h20.829A11.885,11.885,0,0,1,0,0" fill="#79d379"/>
    </g>
  </g>
</svg>
