<svg xmlns="http://www.w3.org/2000/svg" width="44.601" height="41.651" viewBox="0 0 44.601 41.651">
  <g id="Grupo_282" data-name="Grupo 282" transform="translate(-400.691 621.481)">
    <g id="g210" transform="translate(422.995 -619.541)">
      <path id="path212" d="M0,0A10.671,10.671,0,0,1,10.665,10.653,10.67,10.67,0,0,1,0,21.305,10.671,10.671,0,0,1-10.665,10.653,10.672,10.672,0,0,1,0,0M0,23.245A12.613,12.613,0,0,0,12.605,10.653,12.614,12.614,0,0,0,0-1.94,12.613,12.613,0,0,0-12.6,10.653,12.613,12.613,0,0,0,0,23.245" fill="#4d4d4f"/>
    </g>
    <g id="g214" transform="translate(433.405 -594.364)">
      <path id="path216" d="M0,0H-20.827A11.888,11.888,0,0,0-32.715,11.887v1.755a.972.972,0,0,0,1.94-.077V11.887a9.944,9.944,0,0,1,9.948-9.948H0a9.944,9.944,0,0,1,9.948,9.948v1.677a.971.971,0,0,0,1.939.077V11.887A11.888,11.888,0,0,0,0,0" fill="#4d4d4f"/>
    </g>
  </g>
</svg>
