<svg xmlns="http://www.w3.org/2000/svg" width="49" height="49" viewBox="0 0 49 49">
  <g id="add_btn" data-name="add btn" transform="translate(0.5 0.5)">
    <circle id="Oval" cx="24" cy="24" r="24" fill="#5ebfa5" stroke="#fff" stroke-miterlimit="10" stroke-width="1"/>
    <circle id="Oval-2" data-name="Oval" cx="22" cy="22" r="22" transform="translate(2 2)" fill="#5ebfa5" stroke="#fff" stroke-miterlimit="10" stroke-width="1"/>
    <g id="plus" transform="translate(15 15)">
      <g id="Rectangle" transform="translate(8)" fill="#fff">
        <path d="M 1 17.5 C 0.7243000268936157 17.5 0.5 17.27569961547852 0.5 17 L 0.5 1 C 0.5 0.7243000268936157 0.7243000268936157 0.5 1 0.5 C 1.275699973106384 0.5 1.5 0.7243000268936157 1.5 1 L 1.5 17 C 1.5 17.27569961547852 1.275699973106384 17.5 1 17.5 Z" stroke="none"/>
        <path d="M 1 1 L 1 17 L 1.001260042190552 1.000049591064453 C 1.001260042190552 1.000049591064453 1.000859975814819 1 1 1 M 1 0 C 1.552279949188232 0 2 0.4477195739746094 2 1 L 2 17 C 2 17.55228042602539 1.552279949188232 18 1 18 C 0.4477200508117676 18 0 17.55228042602539 0 17 L 0 1 C 0 0.4477195739746094 0.4477200508117676 0 1 0 Z" stroke="none" fill="#fff"/>
      </g>
      <g id="Rectangle-2" data-name="Rectangle" transform="translate(18 8) rotate(90)" fill="#fff" stroke="#fff" stroke-miterlimit="10" stroke-width="1">
        <rect width="2" height="18" rx="1" stroke="none"/>
        <rect x="0.5" y="0.5" width="1" height="17" rx="0.5" fill="none"/>
      </g>
    </g>
  </g>
</svg>
