<svg xmlns="http://www.w3.org/2000/svg" width="25.962" height="22.717" viewBox="0 0 25.962 22.717">
  <g id="Grupo_151" data-name="Grupo 151" transform="translate(-50.901 459.598)">
    <g id="g226" transform="translate(50.901 -459.598)">
      <path id="path228" d="M-11.228,0h-3.965a3.054,3.054,0,0,0-2.16.894l-1.131,1.132a4.16,4.16,0,0,1-2.943,1.219h-.443A4.323,4.323,0,0,0-26.191,7.57l0,10.826a4.324,4.324,0,0,0,4.322,4.321H-4.55A4.322,4.322,0,0,0-.228,18.392l0-10.825A4.323,4.323,0,0,0-4.553,3.245H-5A4.16,4.16,0,0,1-7.942,2.023L-9.066.9A3.05,3.05,0,0,0-11.228,0m0,1.082a1.957,1.957,0,0,1,1.4.58l1.124,1.126A5.207,5.207,0,0,0-5,4.327h.444a3.244,3.244,0,0,1,3.24,3.24l0,10.825a3.221,3.221,0,0,1-.949,2.293,3.218,3.218,0,0,1-2.291.95H-21.865A3.244,3.244,0,0,1-25.1,18.4l0-10.825a3.221,3.221,0,0,1,.949-2.294,3.217,3.217,0,0,1,2.291-.949h.443a5.209,5.209,0,0,0,3.707-1.536l1.131-1.132a1.961,1.961,0,0,1,1.395-.578h3.965" transform="translate(26.191 0)" fill="#4d4d4f"/>
    </g>
    <g id="g230" transform="translate(57.392 -453.647)">
      <path id="path232" d="M-4.87,0a6.491,6.491,0,0,0-6.49,6.492,6.491,6.491,0,0,0,6.49,6.492A6.491,6.491,0,0,0,1.62,6.492,6.491,6.491,0,0,0-4.87,0m0,1.082A5.415,5.415,0,0,1,.538,6.492,5.415,5.415,0,0,1-4.87,11.9a5.415,5.415,0,0,1-5.408-5.41A5.415,5.415,0,0,1-4.87,1.082" transform="translate(11.36)" fill="#4d4d4f"/>
    </g>
  </g>
</svg>
