<svg xmlns="http://www.w3.org/2000/svg" width="30.26" height="28.46" viewBox="0 0 30.26 28.46">
  <g id="Grupo_162" data-name="Grupo 162" transform="translate(0 -5.044)">
    <g id="Grupo_263" data-name="Grupo 263">
      <g id="layer1" transform="translate(0 5.044)">
        <path id="path4739" d="M-272.662,117.706a3.033,3.033,0,0,1-1.761-1.406,2.939,2.939,0,0,1,.221-3.112.552.552,0,0,0,.112-.182,1.057,1.057,0,0,0-.425-.045c-.53,0-.8-.115-.965-.411-.156-.279-.137-.482.111-1.175.332-.926.483-1.342.672-1.861a3.972,3.972,0,0,0,.172-.545c0-.061-.067-.075-.354-.075a.82.82,0,0,1-.573-.139c-.369-.234-.4-.326-.693-1.925l-.483-2.655c-.121-.666-.252-1.373-.292-1.573s-.139-.733-.221-1.186-.2-1.106-.265-1.452-.184-1-.266-1.452-.2-1.106-.266-1.452l-.267-1.452c-.083-.453-.2-1.1-.265-1.428s-.14-.774-.172-.98a1.271,1.271,0,0,0-.114-.421c-.053-.044-.718-.309-2.787-1.109-1.225-.474-1.49-.612-1.669-.87a.7.7,0,0,1-.146-.516.688.688,0,0,1,.147-.516.925.925,0,0,1,.783-.427c.265,0,.257,0,2.41.843l1.806.709a5.96,5.96,0,0,1,.95.441c.236.195.313.4.469,1.267.077.429.182,1,.233,1.264s.148.789.215,1.162c.122.671.317,1.737.542,2.953.064.346.194,1.054.289,1.573.191,1.044.354,1.928.529,2.88.064.346.184,1,.266,1.452s.2,1.106.267,1.452.153.836.2,1.089a2.912,2.912,0,0,0,.114.5c.018.02,3.473.037,7.678.038l7.646,0,.323-.982c.177-.54.458-1.407.622-1.926s.35-1.1.411-1.283.177-.546.257-.8.32-1,.533-1.67.565-1.766.781-2.444.423-1.316.459-1.415.047-.193.023-.208-.822-.058-1.775-.1-2.189-.092-2.748-.118-1.844-.081-2.856-.122-2.525-.106-3.364-.146-2.352-.105-3.364-.146c-3.527-.142-3.521-.142-3.767-.261a.946.946,0,0,1-.373-.334.651.651,0,0,1-.134-.547.883.883,0,0,1,.5-.815,5.406,5.406,0,0,1,2.085-.051c.506.025,1.5.069,2.2.1s1.762.072,2.348.1l2.106.1c.572.026,1.629.07,2.348.1s1.96.082,2.759.12,2.334.1,3.412.144,2.026.087,2.106.1a1.024,1.024,0,0,1,.674.437c.214.339.211.528-.022,1.252-.111.346-.243.76-.292.92s-.23.726-.4,1.258c-.765,2.371-1.576,4.895-1.748,5.445-.063.2-.292.918-.511,1.6s-.524,1.632-.678,2.118c-.314.988-.379,1.123-.645,1.338l-.186.15-7.51.024-7.51.024-.129.339c-.071.186-.185.491-.252.678l-.294.809a3.989,3.989,0,0,0-.171.545c0,.067.807.075,7.853.076h7.853l.194.108a.786.786,0,0,1,.244,1.146c-.186.269-.4.341-1.019.341a2.231,2.231,0,0,0-.507.029,1.021,1.021,0,0,0,.139.206,2.8,2.8,0,0,1,.551,1.725,2.7,2.7,0,0,1-.857,2.036,2.726,2.726,0,0,1-2.034.844,2.712,2.712,0,0,1-2.033-.846,2.7,2.7,0,0,1-.846-2.017,2.977,2.977,0,0,1,.563-1.764.749.749,0,0,0,.114-.182c0-.017-1.416-.032-3.146-.032s-3.146.013-3.146.029a1.017,1.017,0,0,0,.139.206,2.73,2.73,0,0,1,.555,1.721,2.1,2.1,0,0,1-.127.877,2.9,2.9,0,0,1-1.973,1.9,3.3,3.3,0,0,1-1.57.006Zm1.309-1.616a1.513,1.513,0,0,0,.7-.751,1.712,1.712,0,0,0-.043-.955,1.553,1.553,0,0,0-.6-.631,1.865,1.865,0,0,0-1-.069,1.427,1.427,0,0,0-.765.7,1.294,1.294,0,0,0,.688,1.717A1.315,1.315,0,0,0-271.353,116.09Zm10.7,0a1.468,1.468,0,0,0,.692-.747,1.37,1.37,0,0,0-.283-1.312,1.011,1.011,0,0,0-.942-.367c-.367,0-.463.017-.61.108a1.3,1.3,0,0,0-.573,1.631A1.292,1.292,0,0,0-260.656,116.09Z" transform="translate(283.359 -89.341)" fill="#575757"/>
      </g>
    </g>
  </g>
</svg>
