<svg xmlns="http://www.w3.org/2000/svg" width="58.48" height="30.815" viewBox="0 0 58.48 30.815">
  <g id="Grupo_159" data-name="Grupo 159" transform="translate(-132.509 -161.212)">
    <g id="Arrow-left" transform="translate(181.241 192.027) rotate(-90)">
      <path id="Shape" d="M5.767,8.526,3.1,5.718h7.863V4H3.137l2.63-2.773L4.623,0,0,4.874,4.623,9.749,5.767,8.526Z" transform="translate(0 0)" fill="#79d379"/>
    </g>
    <g id="g10" transform="translate(132.509 161.212)">
      <path id="path1349" d="M-1062.881-41.44a8.441,8.441,0,0,1-7.613-8.774,7.923,7.923,0,0,1,.871-3.3,8.247,8.247,0,0,1,3.85-3.849,7.211,7.211,0,0,1,3.755-.831c.672.009,1.354.028,1.517.042.288.024.3.007.6-.682a8.168,8.168,0,0,1,1.907-2.732,8.029,8.029,0,0,1,5.53-2.409,9.212,9.212,0,0,0,.95-.049c.085-.02.233-.273.351-.6a11.3,11.3,0,0,1,5.072-5.928,11.3,11.3,0,0,1,8.676-.772,11.018,11.018,0,0,1,7.3,8.264,14.422,14.422,0,0,1,0,4.377c-.155.631-.111.871.161.871a10.688,10.688,0,0,1,2.271,1.2,8.509,8.509,0,0,1,2.661,3.252,8.435,8.435,0,0,1-5.877,11.8c-.635.151-1.652.162-15.97.177C-1055.273-41.375-1062.481-41.4-1062.881-41.44Zm32.215-1.793a7,7,0,0,0,4.674-4.888,8.638,8.638,0,0,0,.083-3.131,7.237,7.237,0,0,0-1.9-3.408,6.644,6.644,0,0,0-2.611-1.656c-1.453-.545-1.63-.875-1.3-2.411a9.376,9.376,0,0,0-.132-4.856,9.509,9.509,0,0,0-6.716-6.462,11.692,11.692,0,0,0-3.705-.169,9.353,9.353,0,0,0-5.189,2.62,10.15,10.15,0,0,0-2.467,4.178c-.291.8-.682.981-2.167.984a6.806,6.806,0,0,0-4.884,2.045,7.436,7.436,0,0,0-1.581,2.4c-.669,1.422-.878,1.535-2.531,1.373a6.715,6.715,0,0,0-5.859,2.006,6.172,6.172,0,0,0-1.636,2.63,6.817,6.817,0,0,0,1.069,6.339,7.02,7.02,0,0,0,2.959,2.222c1.185.447.542.432,17.423.415l15.835-.016Zm-9.668-5.518a.827.827,0,0,1-.15-.476c0-.278.124-.434,1.179-1.486,1.71-1.7,2.1-2.351,1.893-3.133-.176-.662-.882-.79-1.882-.342l-.484.217-.222-.258a.707.707,0,0,1,.144-1.119,3.162,3.162,0,0,1,1.9-.455,2.08,2.08,0,0,1,2.066,2.458,4.245,4.245,0,0,1-1.375,2.5l-.76.86.979.045c1.15.053,1.36.166,1.36.731,0,.619-.028.626-2.391.626C-1040-48.584-1040.2-48.6-1040.334-48.75Zm-13.189-.056a3.38,3.38,0,0,1-2.282-1.939,3.025,3.025,0,0,1-.317-1.485,3.752,3.752,0,0,1,.463-2.258,3.993,3.993,0,0,1,4.2-1.879c.775.115,1.2.334,1.2.619a1.414,1.414,0,0,1-.351.915,1.031,1.031,0,0,1-.652-.043,2.42,2.42,0,0,0-2.768.794,3.17,3.17,0,0,0-.308,2.393,2.36,2.36,0,0,0,3.177,1.421c.475-.141.492-.14.642.045a1.045,1.045,0,0,1,.124,1.1A4.85,4.85,0,0,1-1053.523-48.806Zm6.7-.035a3.47,3.47,0,0,1-2.312-2.5,6.01,6.01,0,0,1,0-2.353,3.551,3.551,0,0,1,3.76-2.737,3.156,3.156,0,0,1,2.315,1.014c1.884,1.929,1.228,5.514-1.185,6.468a4.378,4.378,0,0,1-2.579.111Zm1.87-1.362a2.465,2.465,0,0,0,1.23-2.392,2.854,2.854,0,0,0-.715-2.009,1.794,1.794,0,0,0-2.961.968,4.35,4.35,0,0,0-.006,2.117,2.011,2.011,0,0,0,1.767,1.483A2.017,2.017,0,0,0-1044.956-50.2Z" transform="translate(1070.506 71.854)" fill="#79d379"/>
    </g>
  </g>
</svg>
