<svg xmlns="http://www.w3.org/2000/svg" xmlns:xlink="http://www.w3.org/1999/xlink" width="162" height="42.384" viewBox="0 0 162 42.384">
  <defs>
    <clipPath id="clip-path">
      <path id="path64" d="M364.36-517.359l19.789,12.634,26.118-9.189-7.388-25.356Z" transform="translate(-364.36 539.269)"/>
    </clipPath>
  </defs>
  <g id="g10" transform="translate(-136.339 265.848)">
    <g id="g982" transform="translate(176.457 -260.999)">
      <path id="path968" d="M292.945-463.858a7.156,7.156,0,0,0-3.07-.646,7.542,7.542,0,0,0-3.915,1.014,7.113,7.113,0,0,0-2.676,2.761,8.406,8.406,0,0,0-.957,4.056,8.089,8.089,0,0,0,.984,4,7.74,7.74,0,0,0,2.761,2.79,7.83,7.83,0,0,0,4,1.014,7.162,7.162,0,0,0,5.07-1.887.889.889,0,0,0,.309-.79,1.17,1.17,0,0,0-.48-.846,1.091,1.091,0,0,0-.789-.255,1.534,1.534,0,0,0-.844.367,4.049,4.049,0,0,1-1.464.818,5.916,5.916,0,0,1-1.8.252,5.256,5.256,0,0,1-2.734-.7,5.37,5.37,0,0,1-1.831-1.944,5.989,5.989,0,0,1-.648-2.817,6.344,6.344,0,0,1,.619-2.874,4.731,4.731,0,0,1,1.776-1.915,4.833,4.833,0,0,1,2.619-.7,4.751,4.751,0,0,1,3.663,1.606,1.549,1.549,0,0,0,.787.451,1.045,1.045,0,0,0,.819-.169,1.245,1.245,0,0,0,.561-.789.873.873,0,0,0-.252-.846,7.277,7.277,0,0,0-2.508-1.944" transform="translate(-282.326 470.984)" fill="#8de28d"/>
      <path id="path970" d="M327.206-453.828a5.058,5.058,0,0,1-1.86,1.916,5.2,5.2,0,0,1-2.7.7,5.2,5.2,0,0,1-2.7-.7,5.051,5.051,0,0,1-1.86-1.916,5.851,5.851,0,0,1-.675-2.844,5.866,5.866,0,0,1,.675-2.847,4.986,4.986,0,0,1,1.86-1.942,5.187,5.187,0,0,1,2.7-.7,5.184,5.184,0,0,1,2.7.7,4.992,4.992,0,0,1,1.86,1.942,5.866,5.866,0,0,1,.675,2.847,5.851,5.851,0,0,1-.675,2.844m-.563-9.661a7.8,7.8,0,0,0-4-1.014,7.967,7.967,0,0,0-4.029,1.014,7.213,7.213,0,0,0-2.76,2.76,8.107,8.107,0,0,0-.985,4.057,8.214,8.214,0,0,0,.985,4.056,7.5,7.5,0,0,0,2.76,2.761,8.161,8.161,0,0,0,4.029.986,8.059,8.059,0,0,0,4.03-.986,7.274,7.274,0,0,0,2.731-2.761,8.027,8.027,0,0,0,1.014-4.056,7.922,7.922,0,0,0-1.014-4.057,7.2,7.2,0,0,0-2.76-2.76" transform="translate(-297.977 470.984)" fill="#8de28d"/>
      <path id="path972" d="M356.288-457.58h-.7a1.255,1.255,0,0,1-1.1-.7,3.449,3.449,0,0,1-.423-1.8v-15.607a1.2,1.2,0,0,0-.365-.93,1.2,1.2,0,0,0-.929-.366,1.3,1.3,0,0,0-.959.366,1.256,1.256,0,0,0-.336.93v15.607a6.515,6.515,0,0,0,.507,2.646,4.623,4.623,0,0,0,1.465,1.8,3.645,3.645,0,0,0,2.141.648h.169a2.057,2.057,0,0,0,1.212-.338,1.147,1.147,0,0,0,.477-.957,1.332,1.332,0,0,0-.309-.931,1.054,1.054,0,0,0-.846-.365" transform="translate(-315.582 476.989)" fill="#8de28d"/>
      <path id="path974" d="M388.642-463.829a5.553,5.553,0,0,0-2.873-.732,6.437,6.437,0,0,0-3.211.79,5.607,5.607,0,0,0-1.781,1.556,4.741,4.741,0,0,0-1.657-1.614,5.547,5.547,0,0,0-2.873-.732,5.555,5.555,0,0,0-2.956.79,5.3,5.3,0,0,0-1.07.864v-.159a1.294,1.294,0,0,0-.367-.958,1.3,1.3,0,0,0-.959-.368,1.293,1.293,0,0,0-.957.368,1.3,1.3,0,0,0-.366.958v12.76a1.359,1.359,0,0,0,.366.957,1.294,1.294,0,0,0,.957.365,1.3,1.3,0,0,0,.959-.365,1.356,1.356,0,0,0,.367-.957v-8.086a3.708,3.708,0,0,1,1.013-2.7,3.379,3.379,0,0,1,2.563-1.071,3.175,3.175,0,0,1,2.423.987,3.848,3.848,0,0,1,.93,2.787v8.086a1.35,1.35,0,0,0,.366.957,1.289,1.289,0,0,0,.957.365,1.2,1.2,0,0,0,.93-.365,1.358,1.358,0,0,0,.365-.957v-8.029a3.924,3.924,0,0,1,.985-2.76,3.384,3.384,0,0,1,2.565-1.071,3.17,3.17,0,0,1,2.422.987,3.837,3.837,0,0,1,.93,2.787v8.086a1.362,1.362,0,0,0,.366.957,1.36,1.36,0,0,0,.958.365,1.3,1.3,0,0,0,.959-.365,1.361,1.361,0,0,0,.365-.957v-8.086a7.245,7.245,0,0,0-.7-3.324,5.023,5.023,0,0,0-1.972-2.112" transform="translate(-324.287 471.012)" fill="#8de28d"/>
      <path id="path976" d="M422.806-461.518a5.175,5.175,0,0,1,2.788-.732,4.508,4.508,0,0,1,2.507.676,4.429,4.429,0,0,1,1.606,1.86,5.609,5.609,0,0,1,.515,1.831h-9.681a6.239,6.239,0,0,1,.49-1.662,4.636,4.636,0,0,1,1.775-1.972m6.534-2a6.921,6.921,0,0,0-3.747-.984,7.552,7.552,0,0,0-3.915,1.013,6.933,6.933,0,0,0-2.647,2.761,8.3,8.3,0,0,0-.957,4.056,8.02,8.02,0,0,0,1.014,4.057,7.371,7.371,0,0,0,2.815,2.761,8.434,8.434,0,0,0,4.113.986,8.624,8.624,0,0,0,2.733-.48,7.826,7.826,0,0,0,2.367-1.269.9.9,0,0,0,.423-.786,1.261,1.261,0,0,0-.48-.875,1.085,1.085,0,0,0-.789-.253,1.433,1.433,0,0,0-.846.282,5.682,5.682,0,0,1-1.549.788,5.4,5.4,0,0,1-1.86.337,5.871,5.871,0,0,1-2.9-.7,5.5,5.5,0,0,1-1.972-1.973,5.544,5.544,0,0,1-.639-1.971h10.921a1.247,1.247,0,0,0,.873-.309,1.15,1.15,0,0,0,.338-.846,8.624,8.624,0,0,0-.846-3.914,6.26,6.26,0,0,0-2.451-2.677" transform="translate(-347.615 470.984)" fill="#8de28d"/>
      <path id="path978" d="M-10.233-.784a7.169,7.169,0,0,0-3.493-.846,6.887,6.887,0,0,0-3.354.817A6.2,6.2,0,0,0-18.627.355v-.52a1.3,1.3,0,0,0-.366-.958,1.3,1.3,0,0,0-.957-.365,1.3,1.3,0,0,0-.959.365,1.3,1.3,0,0,0-.366.958V12.624a1.359,1.359,0,0,0,.366.957,1.294,1.294,0,0,0,.959.366,1.294,1.294,0,0,0,.957-.366,1.353,1.353,0,0,0,.366-.957V4.538a3.26,3.26,0,0,1,.592-1.914,4.268,4.268,0,0,1,1.578-1.353A5.051,5.051,0,0,1-14.175.765a5.094,5.094,0,0,1,2.365.536,3.637,3.637,0,0,1,1.662,1.577,5.178,5.178,0,0,1,.621,2.676v7.071a1.349,1.349,0,0,0,.365.957,1.351,1.351,0,0,0,.957.366,1.256,1.256,0,0,0,.93-.366,1.3,1.3,0,0,0,.394-.957V5.552a7.9,7.9,0,0,0-.9-3.915A5.956,5.956,0,0,0-10.233-.784" transform="translate(109.762 8.139)" fill="#8de28d"/>
      <path id="path980" d="M499.5-453.885a5.218,5.218,0,0,1-1.86,1.973,5.046,5.046,0,0,1-2.676.7,5.243,5.243,0,0,1-2.676-.7,5.454,5.454,0,0,1-1.887-1.973,5.73,5.73,0,0,1-.675-2.788,5.787,5.787,0,0,1,.675-2.817,5.217,5.217,0,0,1,1.887-1.944,5.077,5.077,0,0,1,2.676-.732,4.888,4.888,0,0,1,2.676.732,5,5,0,0,1,1.86,1.944,5.6,5.6,0,0,1,.705,2.817,5.541,5.541,0,0,1-.705,2.788m2.2-6.789a7.423,7.423,0,0,0-2.76-2.788,7.6,7.6,0,0,0-3.972-1.041,7.7,7.7,0,0,0-3.972,1.041,7.642,7.642,0,0,0-2.787,2.788,7.8,7.8,0,0,0-1.015,4,8.281,8.281,0,0,0,.957,4,7.226,7.226,0,0,0,2.619,2.79,7.055,7.055,0,0,0,3.747,1.014,6.909,6.909,0,0,0,3.691-.986,7.123,7.123,0,0,0,1.887-1.714v1.291a1.352,1.352,0,0,0,.367.958,1.355,1.355,0,0,0,.957.365,1.3,1.3,0,0,0,.958-.365,1.361,1.361,0,0,0,.367-.958v-6.393a7.756,7.756,0,0,0-1.044-4" transform="translate(-380.855 470.984)" fill="#8de28d"/>
    </g>
    <g id="g1004" transform="translate(136.339 -265.848)">
      <g id="g986" transform="translate(5.229 0)">
        <path id="path984" d="M-14.592,0A1.242,1.242,0,0,0-15.7.6l-2.39,3.884-11.582,6.643A1.236,1.236,0,0,0-30.3,12.2l-.039,13.709a1.259,1.259,0,0,0,.121.538,1.243,1.243,0,0,0,.5.538l11.67,6.782,2.349,3.815a1.241,1.241,0,0,0,1.719.425,1.238,1.238,0,0,0,.393-1.725l-1.887-3.064,10.744-6.161a1.245,1.245,0,0,0,.623-1.073l.039-13.709A1.242,1.242,0,0,0-4.69,11.2L-15.461,4.94-13.592,1.9a1.24,1.24,0,0,0-1-1.9m-2.579,6.814,10.614,6.171-.035,12.279-10.649,6.108L-27.858,25.2l.035-12.277Z" transform="translate(30.34 0.002)" fill="#8de28d"/>
      </g>
      <g id="g990" transform="translate(13.886 14.098)">
        <path id="path988" d="M-8.283-7.185l.015-5.161-4.462-2.593-4.476,2.568-.015,5.161,4.462,2.591Z" transform="translate(17.221 14.939)" fill="#69e781"/>
      </g>
      <g id="g1002" transform="translate(0 7.84)">
        <g id="g1000" clip-path="url(#clip-path)">
          <g id="g994" transform="translate(5.229 -7.84)">
            <path id="path992" d="M-14.592,0A1.242,1.242,0,0,0-15.7.6l-2.39,3.884-11.582,6.643A1.236,1.236,0,0,0-30.3,12.2l-.039,13.709a1.259,1.259,0,0,0,.121.538,1.243,1.243,0,0,0,.5.538l11.67,6.782,2.349,3.815a1.241,1.241,0,0,0,1.719.425,1.238,1.238,0,0,0,.393-1.725l-1.887-3.064,10.744-6.161a1.245,1.245,0,0,0,.623-1.073l.039-13.709A1.242,1.242,0,0,0-4.69,11.2L-15.461,4.94-13.592,1.9a1.24,1.24,0,0,0-1-1.9m-2.579,6.814,10.614,6.171-.035,12.279-10.649,6.108L-27.858,25.2l.035-12.277Z" transform="translate(30.34 0.002)" fill="#69c974"/>
          </g>
          <g id="g998" transform="translate(13.886 6.259)">
            <path id="path996" d="M-8.283-7.185l.015-5.161-4.462-2.593-4.476,2.568-.015,5.161,4.462,2.591Z" transform="translate(17.221 14.939)" fill="#69c974"/>
          </g>
        </g>
      </g>
    </g>
  </g>
</svg>
