<svg xmlns="http://www.w3.org/2000/svg" width="26.266" height="38.193" viewBox="0 0 26.266 38.193">
  <g id="g986" transform="translate(0)">
    <path id="path984" d="M-14.592,0A1.242,1.242,0,0,0-15.7.6l-2.39,3.884-11.582,6.643A1.236,1.236,0,0,0-30.3,12.2l-.039,13.709a1.259,1.259,0,0,0,.121.538,1.243,1.243,0,0,0,.5.538l11.67,6.782,2.349,3.815a1.241,1.241,0,0,0,1.719.425,1.238,1.238,0,0,0,.393-1.725l-1.887-3.064,10.744-6.161a1.245,1.245,0,0,0,.623-1.073l.039-13.709A1.242,1.242,0,0,0-4.69,11.2L-15.461,4.94-13.592,1.9a1.24,1.24,0,0,0-1-1.9m-2.579,6.814,10.614,6.171-.035,12.279-10.649,6.108L-27.858,25.2l.035-12.277Z" transform="translate(30.34 0.002)" fill="#8de28d"/>
  </g>
</svg>
