<svg xmlns="http://www.w3.org/2000/svg" width="22.258" height="26.262" viewBox="0 0 22.258 26.262">
  <g id="layer1" transform="translate(-46.189 -121.75)">
    <path id="path826" d="M51.308,147.779a5.451,5.451,0,0,1-3.508-3.307c-.334-.817-.354-1.2-.406-7.688-.051-6.536-.067-6.828-.367-6.828-.719,0-.84-.4-.84-2.765,0-1.811.05-2.288.263-2.5s.759-.263,3.254-.263H52.7l.1-.473a3.414,3.414,0,0,1,1.615-1.808,12.9,12.9,0,0,1,5.3-.222c.988.277,2.221,1.417,2.221,2.054v.448h3.079c2.421,0,3.121.05,3.272.232a7.975,7.975,0,0,1,.146,2.639L68.39,129.7l-.545.16-.545.16v6.745c0,6.412-.017,6.791-.347,7.673a6.289,6.289,0,0,1-2.875,3.127c-.867.392-.983.4-6.413.434-4.585.029-5.671-.01-6.358-.224Zm12.223-1.547a4.831,4.831,0,0,0,1.289-.992c1.087-1.206,1.14-1.619,1.14-8.863v-6.421h-17.1l.047,6.828c.052,7.564.038,7.464,1.2,8.625,1.1,1.1,1.279,1.128,7.31,1.128,4.911,0,5.511-.03,6.116-.305Zm-9.769-2.4c-.148-.148-.2-1.665-.2-5.784v-5.583l.439-.2c.387-.176.476-.154.754.19.294.363.315.747.315,5.554a52.718,52.718,0,0,1-.163,5.595A.694.694,0,0,1,53.762,143.83Zm6.2,0c-.148-.148-.2-1.643-.2-5.685,0-4.762.035-5.519.263-5.747a.589.589,0,0,1,.981,0c.228.228.263.974.263,5.624a43.311,43.311,0,0,1-.173,5.685A.766.766,0,0,1,59.962,143.83Zm7.172-16.639v-1.257H47.7v2.513H67.134ZM60.6,124.285c0-.253-.633-.723-1.287-.956a8.787,8.787,0,0,0-3.757-.05c-.654.2-1.323.695-1.323.987a13.928,13.928,0,0,0,3.184.161,18.123,18.123,0,0,0,3.184-.142Z"/>
  </g>
</svg>
