<svg xmlns="http://www.w3.org/2000/svg" width="53.368" height="73.981" viewBox="0 0 53.368 73.981">
  <g id="Grupo_169" data-name="Grupo 169" transform="translate(-163.256 -124.567)">
    <g id="layer1" transform="translate(163.256 124.567)">
      <path id="path858" d="M58.09,110.556c-7.988-.521-12.718-2.073-16.132-5.293-3.1-2.92-4.54-6.988-4.546-12.805a42.586,42.586,0,0,1,2.392-13.9c3.208-9.934,9.173-18.743,15.246-22.516l1.014-.63,2.9-.095,2.9-.095-.507.407a18.774,18.774,0,0,0-5.52,7.3c-.791,1.827-.823,1.7.567,2.175l1.2.407.157-.39a26.113,26.113,0,0,1,2.158-4.159A16.737,16.737,0,0,1,66.4,55.649a6.079,6.079,0,0,1,3.136-.52l2.038-.047.9.525c8.58,5.028,16.285,18.808,18.058,32.291a40.655,40.655,0,0,1,.081,8.153,14.88,14.88,0,0,1-4.286,9.077c-3.062,3.027-7.3,4.6-14.264,5.291-2.007.2-11.583.293-13.972.138Zm14.045-10.57c2.73-.092,3.275-.3,4.031-1.567.774-1.293,3.1-5.837,3.359-6.549a3.974,3.974,0,0,0,.068-2.464c-.217-.42-4.638-7.689-4.771-7.843a6.061,6.061,0,0,0-1.6.829,11.3,11.3,0,0,1-1.559.883c-.029-.029.407-1.591.969-3.47s1.022-3.451,1.022-3.493a2.089,2.089,0,0,0-.719.288,4.9,4.9,0,0,1-.833.364,6.648,6.648,0,0,1-.8-1.357c-.884-1.738-1.4-2.449-2.158-2.947l-.606-.4H64.327c-4.08,0-4.231.01-4.928.331a5.167,5.167,0,0,0-.993.579c-.222.2-4.238,6.775-4.853,7.946-.154.293-.071.369,1.318,1.181.815.477,2.309,1.357,3.32,1.956l1.838,1.089,1.629-2.776c.9-1.527,1.836-3.122,2.091-3.545l.462-.769.6,1.106c.328.608.6,1.132.6,1.165a4.526,4.526,0,0,1-.819.473c-.45.228-.76.446-.688.485s1.776.488,3.787,1,3.656.961,3.656,1a14.523,14.523,0,0,1-1.579,1.058l-1.579.981,2.141,3.433c1.177,1.888,2.118,3.472,2.09,3.52a4.89,4.89,0,0,1-1.25.072l-1.2-.014-.072-.917-.072-.917-2.606,2.9-2.606,2.9-.04-1.946-.04-1.946H56.3l.634-1.029c.349-.566.664-1.058.7-1.094a2.272,2.272,0,0,1,.785.377,5.944,5.944,0,0,0,.8.443c.064,0-1.861-6.795-2.106-7.433-.067-.175-.671-.065-3.53.647-1.9.472-3.54.891-3.652.931-.129.046.056.235.507.519.39.246.733.468.761.494A11.585,11.585,0,0,1,50.341,88c-1.072,1.773-1.3,2.364-1.3,3.369,0,.709.118.954,1.963,4.072,3.053,5.161,2.634,4.895,7.81,4.96,2.15.027,4.316.006,4.814-.048l.905-.1V96.628L67.176,99.2l2.642,2.567.072-.852.072-.852ZM53.222,48.837c-1.244-2.168-2.25-3.958-2.235-3.976s.879.356,1.921.831,2.6,1.106,3.466,1.4a7.02,7.02,0,0,0,3.092.534,11,11,0,0,0,6.319-2.017c2.19-1.365,1.985-1.325,7.238-1.418l4.653-.082-2.3,4c-1.262,2.2-2.355,4.06-2.428,4.133-.095.095-12.7.484-17.324.535A43.661,43.661,0,0,1,53.222,48.837Zm4.434-4.075c-.637-.194-1.68-.576-2.317-.85A58.059,58.059,0,0,1,50,41.23c-.227-.368,1.042-1.313,2.154-1.6.319-.084,1.817-.287,3.33-.453a30.236,30.236,0,0,0,7.528-1.514,10.319,10.319,0,0,1,4.924-1.006,10.142,10.142,0,0,1,3.113.327,17.6,17.6,0,0,1,4.958,2.242c1.247.834,2.552,2.048,2.383,2.217-.054.054-2.4.124-5.2.156-5.945.067-5.723.024-8.6,1.665C61.474,45.03,59.761,45.4,57.656,44.761Z" transform="translate(-37.412 -36.653)" fill="#79d379"/>
    </g>
    <ellipse id="Elipse_19" data-name="Elipse 19" cx="18" cy="17.5" rx="18" ry="17.5" transform="translate(172.624 157)" fill="#79d379"/>
    <path id="Path_5" data-name="Path 5" d="M0,4.653,6.963,11.07a.686.686,0,0,0,.95-.019L18.965,0" transform="translate(181.434 167.524)" fill="none" stroke="#fff" stroke-linecap="round" stroke-miterlimit="10" stroke-width="2"/>
  </g>
</svg>
