<svg id="Grupo_91" data-name="Grupo 91" xmlns="http://www.w3.org/2000/svg" width="28.183" height="28.184" viewBox="0 0 28.183 28.184">
  <path id="Trazado_2140" data-name="Trazado 2140" d="M6.246,147.689l-.981,3.662-3.586.076a14.117,14.117,0,0,1-.1-13.159h0l3.192.585,1.4,3.173a8.411,8.411,0,0,0,.079,5.662Z" transform="translate(0 -130.657)" fill="#fbbb00"/>
  <path id="Trazado_2141" data-name="Trazado 2141" d="M275.164,208.176A14.087,14.087,0,0,1,270.14,221.8h0l-4.021-.205-.569-3.552a8.4,8.4,0,0,0,3.613-4.289h-7.535v-5.575h13.536Z" transform="translate(-247.227 -196.717)" fill="#518ef8"/>
  <path id="Trazado_2142" data-name="Trazado 2142" d="M51.742,317.458h0a14.1,14.1,0,0,1-21.234-4.311l4.567-3.738A8.381,8.381,0,0,0,47.152,313.7Z" transform="translate(-28.83 -292.377)" fill="#28b446"/>
  <path id="Trazado_2143" data-name="Trazado 2143" d="M50.134,3.244,45.569,6.982A8.38,8.38,0,0,0,33.215,11.37L28.625,7.611h0a14.094,14.094,0,0,1,21.51-4.367Z" transform="translate(-27.048)" fill="#f14336"/>
</svg>
