<svg xmlns="http://www.w3.org/2000/svg" width="35.422" height="34" viewBox="0 0 35.422 34">
  <g id="layer1" transform="translate(-24.763 -61.682)">
    <path id="path826" d="M33.495,95.622A4.418,4.418,0,0,1,30.007,92.4a5.092,5.092,0,0,1,0-2.02A4.585,4.585,0,0,1,31.83,87.8a5.4,5.4,0,0,1,.985-.468,3.121,3.121,0,0,1,1.357-.208,3.12,3.12,0,0,1,1.357.208,5.4,5.4,0,0,1,.985.468,4.585,4.585,0,0,1,1.823,2.576,5.092,5.092,0,0,1,0,2.02,4.357,4.357,0,0,1-3.41,3.194A3.571,3.571,0,0,1,33.495,95.622Zm1.374-2.694a1.684,1.684,0,0,0,.083-3.027,1.707,1.707,0,0,0-2.481,1.486,1.764,1.764,0,0,0,1,1.539,1.99,1.99,0,0,0,1.4,0Zm20.211,2.73c-.076-.017-.311-.065-.521-.106a5.186,5.186,0,0,1-.965-.354,4.274,4.274,0,1,1,5.828-5.578,3.867,3.867,0,0,1,.37,1.841,4.227,4.227,0,0,1-2.95,3.993,5.119,5.119,0,0,1-1.761.2Zm1.146-2.745a1.406,1.406,0,0,0,.807-.793,1.7,1.7,0,0,0-.859-2.295,2.171,2.171,0,0,0-1.372.028,1.909,1.909,0,0,0-.872.955,1.755,1.755,0,0,0,.932,2.149,2.065,2.065,0,0,0,1.364-.044Zm-29.45-.81a19.313,19.313,0,0,1,1.386-5.22l.2-.485-.238-.079a.616.616,0,0,1-.307-.207,10.92,10.92,0,0,1-.026-2.184c.122-.318.073-.316,6.382-.316s6.26,0,6.382.316a8.507,8.507,0,0,1,.043,1.1c0,.965,0,.993-.174,1.152-.206.194-.219.4-.072,1.237a13.106,13.106,0,0,0,.713,2.53l.263.643,4.6.018,4.6.018v.711a6.25,6.25,0,0,0,.043.868l.042.156H39.094l.067-.469a5.241,5.241,0,0,0-.7-3.1,6.153,6.153,0,0,0-1.757-1.734,5.173,5.173,0,0,0-3.684-.546,5.011,5.011,0,0,0-3.6,3.3,4.848,4.848,0,0,0-.236,2.147l.065.4H26.776V92.1ZM47.8,90.029a1.713,1.713,0,0,1-.667-.429c-.319-.312-.376-.434-1.279-2.723-.52-1.318-1-2.546-1.068-2.729-.081-.219-.171-.343-.263-.363-.077-.017-1.391-.221-2.919-.454s-2.974-.486-3.213-.563a2.771,2.771,0,0,1-1.722-2.134,17.519,17.519,0,0,1-.178-3.856,17.135,17.135,0,0,1,1.116-4.731,3.4,3.4,0,0,1,2.729-2.1,1.855,1.855,0,0,1,2.029,1.128,3.711,3.711,0,0,1,.285,1.725l-.05.333-.277-.37c-.152-.2-.416-.611-.586-.906-.392-.679-.738-.911-1.356-.911a1.342,1.342,0,0,0-1.267.788,1.073,1.073,0,0,0-.16.755,7.551,7.551,0,0,0,2.21,3.294l.757.75-.107.917a9.893,9.893,0,0,0-.066,2.271c.251,0,4.649.725,4.857.8a2.076,2.076,0,0,1,.9.8c.052.1.665,1.62,1.362,3.374,1.187,2.988,1.267,3.218,1.266,3.641a1.741,1.741,0,0,1-1.235,1.7A1.617,1.617,0,0,1,47.8,90.029Zm11.9-1.4a5.335,5.335,0,0,0-.987-1.1,5.9,5.9,0,0,0-2.138-1.043,4.975,4.975,0,0,0-1.285-.077,4.762,4.762,0,0,0-3.055,1.2l-.42.356-1.586-4.632c-.873-2.548-1.609-4.668-1.636-4.712s-.271,0-.806.2c-.83.312-1.081.321-1.336.047a.91.91,0,0,1-.189-.333l-.044-.178.543.062a8.514,8.514,0,0,0,1.153.031,1.432,1.432,0,0,0,1.483-.871l.218-.435.205.577c.113.317.371,1.063.575,1.658l.37,1.081.573.293a6.734,6.734,0,0,1,3.261,3.629l.258.668.565.045a5.464,5.464,0,0,1,3.808,1.771,3.653,3.653,0,0,1,.959,1.527c0,.148-.184.288-.377.288C59.748,88.682,59.7,88.657,59.7,88.626ZM25.144,82.767a1.08,1.08,0,0,1-.259-.224c-.111-.136-.12-.5-.122-4.884,0-3.261.022-4.789.074-4.9a.773.773,0,0,1,.271-.281c.178-.1.638-.116,4.929-.116,5.251,0,5.056-.017,5.253.454.147.351.147,9.229,0,9.58-.2.471,0,.454-5.263.452-3.316,0-4.786-.025-4.883-.079Zm27.356-2.7a2.184,2.184,0,0,1,.578-4.212c.354-.036.379-.028.6.208a2.736,2.736,0,0,1,.491,1.961,2.96,2.96,0,0,1-.465,1.957.521.521,0,0,1-.526.228,2.37,2.37,0,0,1-.68-.141Zm-5.766-1.946a9.282,9.282,0,0,1-6.678-4.077,3.371,3.371,0,0,1-.8-1.692,1.135,1.135,0,0,1,2.1-.56,8.04,8.04,0,0,0,3.15,3.28,6.019,6.019,0,0,0,3.025.766c1.072,0,1.5.234,1.683.912a1.132,1.132,0,0,1-.574,1.26,4.781,4.781,0,0,1-1.9.112Zm-3.914-8.259a3.767,3.767,0,0,1-1.111-.408,4.126,4.126,0,0,1-.833-.7c0-.03.2-.006.434.052a7.259,7.259,0,0,0,1.407.112c1.715.012,1.871-.187,1.595-2.034-.088-.586-.091-.743-.017-.9.151-.314.773-.58,1.735-.741l.257-.043.146.471a3.923,3.923,0,0,1,.067,1.836,3.331,3.331,0,0,1-2.479,2.319,2.564,2.564,0,0,1-1.2.032Zm-.938-1.253a2.6,2.6,0,0,1-2.448-1.733,3.807,3.807,0,0,1,.852-4.113,3.762,3.762,0,0,1,4.681-.475,3.92,3.92,0,0,1,1.556,2.175c.119.46.2.4-.706.535-.985.147-1.637.474-1.818.911-.078.188-.073.36.036,1.145.149,1.073.113,1.328-.21,1.486a5.527,5.527,0,0,1-1.942.069Z" fill="#5ebfa5"/>
  </g>
</svg>
