<svg xmlns="http://www.w3.org/2000/svg" width="22.865" height="31.697" viewBox="0 0 22.865 31.697">
  <g id="layer1" transform="translate(-37.412 -36.653)">
    <path id="path858" d="M46.272,68.316c-3.422-.223-5.449-.888-6.912-2.268-1.326-1.251-1.945-2.994-1.948-5.486a18.246,18.246,0,0,1,1.025-5.955c1.375-4.256,3.93-8.03,6.532-9.647l.434-.27,1.241-.041,1.241-.041-.217.174A8.043,8.043,0,0,0,45.3,47.911c-.339.783-.353.73.243.932l.515.174.067-.167a11.188,11.188,0,0,1,.925-1.782,7.171,7.171,0,0,1,2.781-2.276,2.6,2.6,0,0,1,1.343-.223l.873-.02.384.225c3.676,2.154,6.977,8.058,7.737,13.835a17.419,17.419,0,0,1,.035,3.493,6.375,6.375,0,0,1-1.836,3.889c-1.312,1.3-3.129,1.971-6.111,2.267-.86.085-4.962.126-5.986.059Zm6.017-4.528c1.169-.039,1.4-.13,1.727-.671s1.33-2.5,1.439-2.806a1.7,1.7,0,0,0,.029-1.056c-.093-.18-1.987-3.294-2.044-3.36a2.6,2.6,0,0,0-.685.355,4.843,4.843,0,0,1-.668.378c-.012-.012.174-.682.415-1.487s.438-1.479.438-1.5a.9.9,0,0,0-.308.123,2.1,2.1,0,0,1-.357.156,2.849,2.849,0,0,1-.344-.581,2.946,2.946,0,0,0-.925-1.263l-.26-.172h-1.8c-1.748,0-1.813,0-2.111.142a2.214,2.214,0,0,0-.425.248c-.095.086-1.816,2.9-2.079,3.4-.066.126-.03.158.565.506.349.2.989.582,1.422.838l.787.466.7-1.189c.384-.654.787-1.338.9-1.519l.2-.329.256.474c.141.261.256.485.256.5a1.939,1.939,0,0,1-.351.2c-.193.1-.326.191-.295.208s.761.209,1.623.427,1.566.412,1.566.43a6.223,6.223,0,0,1-.676.453l-.676.42.917,1.471c.5.809.907,1.487.9,1.508a2.1,2.1,0,0,1-.535.031l-.514-.006-.031-.393-.031-.393L50.18,61.049l-1.117,1.242-.017-.834-.017-.834H45.5l.272-.441c.149-.242.284-.453.3-.469a.973.973,0,0,1,.336.162,2.548,2.548,0,0,0,.341.19c.027,0-.8-2.911-.9-3.185-.029-.075-.287-.028-1.512.277-.813.2-1.517.382-1.565.4s.024.1.217.222c.167.105.314.2.326.212a4.963,4.963,0,0,1-.365.66,2.5,2.5,0,0,0-.557,1.444c0,.3.051.409.841,1.745,1.308,2.211,1.128,2.1,3.346,2.125.921.012,1.849,0,2.063-.02l.388-.042V62.349l1.132,1.1,1.132,1.1.031-.365.031-.365Zm-8.1-21.915c-.533-.929-.964-1.7-.958-1.7s.377.153.823.356,1.115.474,1.485.6a3.008,3.008,0,0,0,1.325.229,4.712,4.712,0,0,0,2.708-.864c.938-.585.851-.568,3.1-.607l1.993-.035-.983,1.714c-.541.943-1.009,1.739-1.04,1.771s-5.44.207-7.422.229A18.706,18.706,0,0,1,44.186,41.873Zm1.9-1.746c-.273-.083-.72-.247-.993-.364a24.875,24.875,0,0,1-2.288-1.149c-.1-.157.446-.562.923-.687.136-.036.779-.123,1.427-.194a12.954,12.954,0,0,0,3.225-.649,4.421,4.421,0,0,1,2.11-.431,4.345,4.345,0,0,1,1.334.14,7.542,7.542,0,0,1,2.124.961c.534.357,1.093.877,1.021.95-.023.023-1.026.053-2.229.067-2.547.029-2.452.01-3.686.713C47.721,40.242,46.987,40.4,46.085,40.127Z" fill="#5ebfa5"/>
  </g>
</svg>
