<svg xmlns="http://www.w3.org/2000/svg" width="163.433" height="122.092" viewBox="0 0 163.433 122.092">
  <g id="colmena_logo" data-name="colmena logo" transform="translate(-22.671 -13.863)">
    <g id="g1161" transform="translate(22.671 75.879)">
      <g id="g1151">
        <g id="text1149">
          <path id="path7308" d="M-1547.836,2302.688a10.4,10.4,0,0,1-5.319-1.349,10.245,10.245,0,0,1-3.671-3.708,10.768,10.768,0,0,1-1.311-5.32,11.179,11.179,0,0,1,1.274-5.394,9.494,9.494,0,0,1,3.559-3.671,10.048,10.048,0,0,1,5.207-1.348,9.493,9.493,0,0,1,4.083.861,9.649,9.649,0,0,1,3.334,2.585,1.167,1.167,0,0,1,.337,1.124,1.673,1.673,0,0,1-.749,1.049,1.386,1.386,0,0,1-1.086.225,2.053,2.053,0,0,1-1.049-.6,6.317,6.317,0,0,0-4.87-2.135,6.434,6.434,0,0,0-3.484.937,6.3,6.3,0,0,0-2.36,2.547,8.438,8.438,0,0,0-.824,3.821,7.965,7.965,0,0,0,.862,3.746,7.116,7.116,0,0,0,2.435,2.585,6.968,6.968,0,0,0,3.633.937,7.834,7.834,0,0,0,2.4-.337,5.362,5.362,0,0,0,1.948-1.086,2.024,2.024,0,0,1,1.124-.487,1.442,1.442,0,0,1,1.049.337,1.549,1.549,0,0,1,.637,1.124,1.171,1.171,0,0,1-.412,1.049,9.516,9.516,0,0,1-6.743,2.51Z" transform="translate(1558.137 -2273.282)" fill="#5ebfa5"/>
          <path id="path7310" d="M-1525.338,2302.688a10.84,10.84,0,0,1-5.357-1.311,9.953,9.953,0,0,1-3.671-3.671,10.92,10.92,0,0,1-1.311-5.394,10.787,10.787,0,0,1,1.311-5.394,9.6,9.6,0,0,1,3.671-3.671,10.6,10.6,0,0,1,5.357-1.348,10.4,10.4,0,0,1,5.319,1.348,9.6,9.6,0,0,1,3.671,3.671,10.549,10.549,0,0,1,1.349,5.394,10.679,10.679,0,0,1-1.349,5.394,9.676,9.676,0,0,1-3.634,3.671A10.707,10.707,0,0,1-1525.338,2302.688Zm0-3.109a6.894,6.894,0,0,0,3.6-.937,6.726,6.726,0,0,0,2.472-2.547,7.775,7.775,0,0,0,.9-3.783,7.775,7.775,0,0,0-.9-3.783,6.654,6.654,0,0,0-2.472-2.585,6.894,6.894,0,0,0-3.6-.937,6.894,6.894,0,0,0-3.6.937,6.656,6.656,0,0,0-2.472,2.585,7.775,7.775,0,0,0-.9,3.783,7.775,7.775,0,0,0,.9,3.783,6.727,6.727,0,0,0,2.472,2.547A6.894,6.894,0,0,0-1525.338,2299.579Z" transform="translate(1558.137 -2273.282)" fill="#5ebfa5"/>
          <path id="path7312" d="M-1504.593,2302.538a4.857,4.857,0,0,1-2.847-.862,6.173,6.173,0,0,1-1.948-2.4,8.682,8.682,0,0,1-.674-3.521v-20.752a1.67,1.67,0,0,1,.449-1.236,1.722,1.722,0,0,1,1.274-.487,1.6,1.6,0,0,1,1.236.487,1.6,1.6,0,0,1,.487,1.236v20.752a4.6,4.6,0,0,0,.562,2.4,1.668,1.668,0,0,0,1.461.937h.937a1.4,1.4,0,0,1,1.124.487,1.759,1.759,0,0,1,.412,1.236,1.528,1.528,0,0,1-.637,1.273,2.726,2.726,0,0,1-1.611.45Z" transform="translate(1558.137 -2273.282)" fill="#5ebfa5"/>
          <path id="path7314" d="M-1471.108,2302.575a1.8,1.8,0,0,1-1.274-.487,1.8,1.8,0,0,1-.487-1.273v-10.751a5.116,5.116,0,0,0-1.236-3.708,4.225,4.225,0,0,0-3.222-1.311,4.5,4.5,0,0,0-3.409,1.424,5.206,5.206,0,0,0-1.311,3.671h-2.922a8.665,8.665,0,0,1,1.049-4.308,7.469,7.469,0,0,1,2.922-2.922,8.59,8.59,0,0,1,4.27-1.049,7.373,7.373,0,0,1,3.821.974,6.642,6.642,0,0,1,2.622,2.81,9.625,9.625,0,0,1,.937,4.42v10.751a1.8,1.8,0,0,1-.487,1.273A1.722,1.722,0,0,1-1471.108,2302.575Zm-25.4,0a1.722,1.722,0,0,1-1.274-.487,1.8,1.8,0,0,1-.487-1.273v-16.969a1.722,1.722,0,0,1,.487-1.273,1.722,1.722,0,0,1,1.274-.487,1.723,1.723,0,0,1,1.274.487,1.723,1.723,0,0,1,.487,1.273v16.969a1.8,1.8,0,0,1-.487,1.273A1.723,1.723,0,0,1-1496.505,2302.575Zm12.736,0a1.722,1.722,0,0,1-1.274-.487,1.8,1.8,0,0,1-.487-1.273v-10.751a5.117,5.117,0,0,0-1.236-3.708,4.225,4.225,0,0,0-3.222-1.311,4.5,4.5,0,0,0-3.409,1.424,4.94,4.94,0,0,0-1.349,3.6h-2.285a9.211,9.211,0,0,1,1.011-4.233,7.262,7.262,0,0,1,2.7-2.922,7.413,7.413,0,0,1,3.933-1.049,7.373,7.373,0,0,1,3.821.974,6.412,6.412,0,0,1,2.585,2.81,9.625,9.625,0,0,1,.937,4.42v10.751a1.8,1.8,0,0,1-.487,1.273,1.6,1.6,0,0,1-1.236.487Z" transform="translate(1558.137 -2273.282)" fill="#5ebfa5"/>
          <path id="path7316" d="M-1453.486,2302.688a11.209,11.209,0,0,1-5.469-1.311,9.794,9.794,0,0,1-3.746-3.671,10.678,10.678,0,0,1-1.349-5.394,11.04,11.04,0,0,1,1.274-5.394,9.233,9.233,0,0,1,3.521-3.671,10.049,10.049,0,0,1,5.207-1.348,9.209,9.209,0,0,1,4.982,1.311,8.324,8.324,0,0,1,3.259,3.559,11.5,11.5,0,0,1,1.124,5.207,1.524,1.524,0,0,1-.45,1.124,1.65,1.65,0,0,1-1.161.412h-15.358v-2.81h15.4l-1.573,1.086a7.935,7.935,0,0,0-.749-3.521,5.9,5.9,0,0,0-2.135-2.472,6,6,0,0,0-3.334-.9,6.9,6.9,0,0,0-3.708.974,6.171,6.171,0,0,0-2.36,2.622,8.933,8.933,0,0,0-.787,3.821,7.732,7.732,0,0,0,.937,3.821,7.326,7.326,0,0,0,2.622,2.622,7.809,7.809,0,0,0,3.858.937,7.189,7.189,0,0,0,2.472-.449,7.535,7.535,0,0,0,2.06-1.049,1.9,1.9,0,0,1,1.124-.375,1.44,1.44,0,0,1,1.049.337,1.666,1.666,0,0,1,.637,1.161,1.194,1.194,0,0,1-.562,1.049,10.392,10.392,0,0,1-3.147,1.686,11.5,11.5,0,0,1-3.633.637Z" transform="translate(1558.137 -2273.282)" fill="#5ebfa5"/>
          <path id="path7318" d="M-1422.427,2302.575a1.8,1.8,0,0,1-1.274-.487,1.8,1.8,0,0,1-.487-1.273v-9.4a6.887,6.887,0,0,0-.824-3.559,4.851,4.851,0,0,0-2.21-2.1,6.79,6.79,0,0,0-3.147-.712,6.692,6.692,0,0,0-3.034.674,5.676,5.676,0,0,0-2.1,1.8,4.336,4.336,0,0,0-.786,2.547h-2.285a7.923,7.923,0,0,1,1.2-4.2,8.059,8.059,0,0,1,3.147-2.922,9.13,9.13,0,0,1,4.458-1.086,9.541,9.541,0,0,1,4.645,1.124,7.936,7.936,0,0,1,3.259,3.222,10.493,10.493,0,0,1,1.2,5.207v9.4a1.733,1.733,0,0,1-.524,1.273,1.675,1.675,0,0,1-1.236.487Zm-15.62,0a1.723,1.723,0,0,1-1.274-.487,1.8,1.8,0,0,1-.487-1.273v-17.007a1.723,1.723,0,0,1,.487-1.273,1.722,1.722,0,0,1,1.274-.487,1.721,1.721,0,0,1,1.274.487,1.722,1.722,0,0,1,.487,1.273v17.007a1.8,1.8,0,0,1-.487,1.273A1.722,1.722,0,0,1-1438.048,2302.575Z" transform="translate(1558.137 -2273.282)" fill="#5ebfa5"/>
          <path id="path7320" d="M-1405.657,2302.688a9.372,9.372,0,0,1-4.982-1.349,9.584,9.584,0,0,1-3.484-3.708,11.02,11.02,0,0,1-1.274-5.32,10.4,10.4,0,0,1,1.349-5.319,10.154,10.154,0,0,1,3.708-3.708,10.234,10.234,0,0,1,5.282-1.386,10.106,10.106,0,0,1,5.282,1.386,9.871,9.871,0,0,1,3.671,3.708,10.306,10.306,0,0,1,1.386,5.319l-1.349.3a10.36,10.36,0,0,1-1.274,5.132,9.539,9.539,0,0,1-3.409,3.633,9.188,9.188,0,0,1-4.907,1.311Zm.6-3.109a6.7,6.7,0,0,0,3.559-.937,6.929,6.929,0,0,0,2.472-2.622,7.372,7.372,0,0,0,.937-3.708,7.446,7.446,0,0,0-.937-3.746,6.65,6.65,0,0,0-2.472-2.585,6.5,6.5,0,0,0-3.559-.974,6.743,6.743,0,0,0-3.559.974,6.927,6.927,0,0,0-2.51,2.585,7.7,7.7,0,0,0-.9,3.746,7.618,7.618,0,0,0,.9,3.708,7.227,7.227,0,0,0,2.51,2.622A6.95,6.95,0,0,0-1405.058,2299.579Zm8.578,3a1.8,1.8,0,0,1-1.274-.487,1.8,1.8,0,0,1-.487-1.274v-5.956l.712-3.634,2.809,1.086v8.5a1.8,1.8,0,0,1-.487,1.274,1.722,1.722,0,0,1-1.274.487Z" transform="translate(1558.137 -2273.282)" fill="#5ebfa5"/>
        </g>
      </g>
    </g>
    <g id="g1167" transform="translate(86.924 13.863)">
      <path id="path1163" d="M-1367.454,1560.672a1.65,1.65,0,0,0-1.477.8l-3.181,5.163-15.4,8.833a1.649,1.649,0,0,0-.829,1.426l-.052,18.231a1.647,1.647,0,0,0,.16.714h0a1.647,1.647,0,0,0,.66.717l15.517,9.018,3.125,5.073a1.649,1.649,0,0,0,2.269.54,1.649,1.649,0,0,0,.539-2.269l-2.509-4.073,14.285-8.193a1.649,1.649,0,0,0,.829-1.426l.052-18.231a1.649,1.649,0,0,0-.82-1.43l-14.323-8.325,2.486-4.036a1.65,1.65,0,0,0,.068-1.652,1.649,1.649,0,0,0-1.4-.881Zm-3.429,9.063,14.116,8.2-.047,16.327-14.163,8.123-14.116-8.2.047-16.327Z" transform="translate(1388.394 -1560.671)" fill="#5ebfa5"/>
      <path id="path1165" d="M11.863,3.058,5.72,0,0,3.791.423,10.64,6.566,13.7l5.72-3.791Z" transform="translate(20.865 17.089) rotate(63.701)" fill="#5ebfa5"/>
    </g>
    <g id="flowRoot7036" transform="translate(22.685 125.727)">
      <path id="path7242" d="M-3119.955,6717.715a.686.686,0,0,1-.371-.074.235.235,0,0,1-.074-.233l.7-6.784a.368.368,0,0,1,.106-.265.4.4,0,0,1,.276-.085h1.833a2.759,2.759,0,0,1,1.791.5,1.741,1.741,0,0,1,.6,1.441,1.989,1.989,0,0,1-.382,1.229,1.738,1.738,0,0,1-1.028.646v.042a.981.981,0,0,1,.413.329,1.691,1.691,0,0,1,.3.573l.71,2.332a.893.893,0,0,1,.021.148q0,.2-.52.2h-.2q-.424,0-.466-.191l-.6-2.067a1.257,1.257,0,0,0-.424-.721,1.462,1.462,0,0,0-.869-.2h-.827l-.308,2.915a.249.249,0,0,1-.148.2.824.824,0,0,1-.361.063Zm2.4-4.166a1.326,1.326,0,0,0,.965-.308,1.141,1.141,0,0,0,.339-.858,1.045,1.045,0,0,0-.329-.848,1.544,1.544,0,0,0-1.007-.275h-1.028l-.244,2.29Z" transform="translate(3120.404 -6709.713)" fill="#5ebfa5"/>
      <path id="path7244" d="M-3112.065,6715.469a5.722,5.722,0,0,1-.975-.074v.021a1.447,1.447,0,0,0,.361,1.124,1.583,1.583,0,0,0,1.06.318,2.378,2.378,0,0,0,.774-.117,4.475,4.475,0,0,0,.657-.286.7.7,0,0,1,.212-.1c.028,0,.046.007.053.021a.166.166,0,0,1,.021.106,2.98,2.98,0,0,1-.064.583q-.074.351-.668.53a4.023,4.023,0,0,1-1.1.17,2.839,2.839,0,0,1-1.749-.509,2.043,2.043,0,0,1-.678-1.728,3.943,3.943,0,0,1,.742-2.522,2.582,2.582,0,0,1,2.131-.933,2.3,2.3,0,0,1,1.113.233,1.433,1.433,0,0,1,.615.573,1.337,1.337,0,0,1,.18.646,1.589,1.589,0,0,1-.784,1.474,3.612,3.612,0,0,1-1.9.466Zm.721-2.48a1.458,1.458,0,0,0-1.092.435,2.125,2.125,0,0,0-.541,1.2h.678a3.769,3.769,0,0,0,1.219-.2.78.78,0,0,0,.594-.773.566.566,0,0,0-.244-.477.979.979,0,0,0-.615-.18Z" transform="translate(3120.404 -6709.713)" fill="#5ebfa5"/>
      <path id="path7246" d="M-3106.344,6717.769a2.568,2.568,0,0,1-1.781-.54,2.264,2.264,0,0,1-.583-1.717,3.817,3.817,0,0,1,.753-2.534,2.665,2.665,0,0,1,2.152-.9,3.269,3.269,0,0,1,1.039.159c.318.106.477.237.477.393a.817.817,0,0,1-.191.4q-.18.254-.286.254a.343.343,0,0,1-.138-.053,2.134,2.134,0,0,0-.435-.17,1.781,1.781,0,0,0-.551-.074,1.4,1.4,0,0,0-1.24.625,3.175,3.175,0,0,0-.424,1.8,1.623,1.623,0,0,0,.307,1.091,1.3,1.3,0,0,0,1.007.35,1.9,1.9,0,0,0,.551-.074,5.058,5.058,0,0,0,.52-.191c.035-.014.063-.025.085-.031a.164.164,0,0,1,.064-.021q.117,0,.233.223a.854.854,0,0,1,.117.381q0,.255-.562.445a3.628,3.628,0,0,1-1.113.18Z" transform="translate(3120.404 -6709.713)" fill="#5ebfa5"/>
      <path id="path7248" d="M-3102.482,6717.769a.981.981,0,0,1-.71-.254,1.074,1.074,0,0,1-.265-.805,2.616,2.616,0,0,1,.01-.265l.4-4.049q.031-.265.509-.265h.117q.488,0,.467.265l-.4,4.039a.578.578,0,0,0,.042.339.26.26,0,0,0,.233.1.761.761,0,0,0,.223-.032.646.646,0,0,1,.138-.031c.049,0,.074.031.074.1a2.485,2.485,0,0,1-.053.456.44.44,0,0,1-.286.307,1.187,1.187,0,0,1-.5.106Zm.063-6.317c-.374,0-.555-.089-.541-.265l.074-.689c.014-.176.212-.265.594-.265a.824.824,0,0,1,.413.074.185.185,0,0,1,.117.191l-.064.689C-3101.846,6711.363-3102.044,6711.452-3102.419,6711.452Z" transform="translate(3120.404 -6709.713)" fill="#5ebfa5"/>
      <path id="path7250" d="M-3098.395,6717.769a2.568,2.568,0,0,1-1.781-.54,2.264,2.264,0,0,1-.583-1.717,3.817,3.817,0,0,1,.753-2.534,2.665,2.665,0,0,1,2.152-.9,3.269,3.269,0,0,1,1.039.159c.318.106.477.237.477.393a.817.817,0,0,1-.191.4q-.18.254-.286.254a.343.343,0,0,1-.138-.053,2.134,2.134,0,0,0-.435-.17,1.781,1.781,0,0,0-.551-.074,1.4,1.4,0,0,0-1.24.625,3.175,3.175,0,0,0-.424,1.8,1.623,1.623,0,0,0,.307,1.091,1.3,1.3,0,0,0,1.007.35,1.9,1.9,0,0,0,.551-.074,5.058,5.058,0,0,0,.52-.191c.035-.014.063-.025.085-.031a.164.164,0,0,1,.064-.021q.117,0,.233.223a.854.854,0,0,1,.117.381q0,.255-.562.445a3.628,3.628,0,0,1-1.113.18Z" transform="translate(3120.404 -6709.713)" fill="#5ebfa5"/>
      <path id="path7252" d="M-3094.363,6717.769a1.028,1.028,0,0,1-.774-.265,1.252,1.252,0,0,1-.254-.869q0-.2.01-.308l.647-6.349a.267.267,0,0,1,.127-.2.751.751,0,0,1,.35-.064h.191q.456,0,.424.255l-.657,6.466q-.042.434.286.435a.761.761,0,0,0,.223-.032.646.646,0,0,1,.138-.031c.049,0,.074.031.074.1a2.485,2.485,0,0,1-.053.456.438.438,0,0,1-.275.307,1.041,1.041,0,0,1-.456.106Z" transform="translate(3120.404 -6709.713)" fill="#5ebfa5"/>
      <path id="path7254" d="M-3091.01,6717.769a1.708,1.708,0,0,1-.837-.222,1.7,1.7,0,0,1-.668-.731,3.042,3.042,0,0,1-.254-1.335,4.734,4.734,0,0,1,.308-1.76,2.739,2.739,0,0,1,.89-1.2,2.158,2.158,0,0,1,1.325-.435,1.885,1.885,0,0,1,1.325.562,1.3,1.3,0,0,1,.2-.4.469.469,0,0,1,.339-.117h.085a.375.375,0,0,1,.286.085.283.283,0,0,1,.074.244l-.4,3.975q-.042.434.286.435a.8.8,0,0,0,.233-.032.649.649,0,0,1,.138-.031c.05,0,.074.031.074.1a2.5,2.5,0,0,1-.053.456.439.439,0,0,1-.276.307,1.088,1.088,0,0,1-.456.106q-1,0-1.028-1.05a2.094,2.094,0,0,1-.7.795,1.665,1.665,0,0,1-.89.255Zm.318-.933a1.064,1.064,0,0,0,.721-.339,2.681,2.681,0,0,0,.625-1.091l.159-1.4q.053-.445.1-.636a1.67,1.67,0,0,0-1.071-.371,1.216,1.216,0,0,0-1.1.689,3.505,3.505,0,0,0-.382,1.717q0,1.43.954,1.431Z" transform="translate(3120.404 -6709.713)" fill="#5ebfa5"/>
      <path id="path7256" d="M-3087.258,6719.941a1.408,1.408,0,0,1-.583-.106.342.342,0,0,1-.244-.318q0-.625.148-.625a.922.922,0,0,1,.169.063.736.736,0,0,0,.35.074.508.508,0,0,0,.392-.149.941.941,0,0,0,.18-.53l.625-5.957q.032-.265.519-.265h.117q.466,0,.466.265l-.636,6.01a1.682,1.682,0,0,1-.509,1.176,1.465,1.465,0,0,1-1,.36Zm1.7-8.49c-.375,0-.555-.089-.541-.265l.074-.689c.014-.176.212-.265.594-.265a.823.823,0,0,1,.413.074.184.184,0,0,1,.117.191l-.063.689C-3084.99,6711.363-3085.188,6711.452-3085.562,6711.452Z" transform="translate(3120.404 -6709.713)" fill="#5ebfa5"/>
      <path id="path7258" d="M-3081.9,6715.469a5.722,5.722,0,0,1-.975-.074v.021a1.447,1.447,0,0,0,.361,1.124,1.583,1.583,0,0,0,1.06.318,2.378,2.378,0,0,0,.774-.117,4.475,4.475,0,0,0,.657-.286.7.7,0,0,1,.212-.1c.028,0,.046.007.053.021a.166.166,0,0,1,.021.106,2.98,2.98,0,0,1-.064.583q-.074.351-.668.53a4.023,4.023,0,0,1-1.1.17,2.839,2.839,0,0,1-1.749-.509,2.043,2.043,0,0,1-.678-1.728,3.943,3.943,0,0,1,.742-2.522,2.582,2.582,0,0,1,2.131-.933,2.3,2.3,0,0,1,1.113.233,1.433,1.433,0,0,1,.615.573,1.337,1.337,0,0,1,.18.646A1.589,1.589,0,0,1-3080,6715a3.612,3.612,0,0,1-1.9.466Zm.721-2.48a1.458,1.458,0,0,0-1.092.435,2.125,2.125,0,0,0-.541,1.2h.678a3.769,3.769,0,0,0,1.219-.2.78.78,0,0,0,.594-.773.566.566,0,0,0-.244-.477.979.979,0,0,0-.615-.18Z" transform="translate(3120.404 -6709.713)" fill="#5ebfa5"/>
      <path id="path7260" d="M-3072.687,6717.769a3.245,3.245,0,0,1-2.321-.731,3,3,0,0,1-.763-2.258,5.076,5.076,0,0,1,1.007-3.392,3.6,3.6,0,0,1,2.9-1.187,4.408,4.408,0,0,1,1.007.116,2.5,2.5,0,0,1,.774.275c.148.092.223.188.223.286a.917.917,0,0,1-.212.456q-.2.286-.329.286a1.235,1.235,0,0,1-.254-.116,2.3,2.3,0,0,0-.541-.223,2.683,2.683,0,0,0-.763-.1,2.311,2.311,0,0,0-1.961.88,4.161,4.161,0,0,0-.667,2.565,2.33,2.33,0,0,0,.488,1.622,1.985,1.985,0,0,0,1.516.53,3.062,3.062,0,0,0,.859-.106,5.908,5.908,0,0,0,.752-.3.611.611,0,0,1,.233-.1c.085,0,.166.084.244.254a.994.994,0,0,1,.127.414.336.336,0,0,1-.106.212,1.053,1.053,0,0,1-.276.191,3.447,3.447,0,0,1-.88.3,4.927,4.927,0,0,1-1.06.117Z" transform="translate(3120.404 -6709.713)" fill="#5ebfa5"/>
      <path id="path7262" d="M-3066.792,6717.769a2.3,2.3,0,0,1-1.717-.615,2.442,2.442,0,0,1-.6-1.77,4.027,4.027,0,0,1,.657-2.375,2.393,2.393,0,0,1,2.088-.933,2.179,2.179,0,0,1,1.675.636,2.469,2.469,0,0,1,.594,1.77,3.721,3.721,0,0,1-.71,2.448A2.438,2.438,0,0,1-3066.792,6717.769Zm.074-.911q1.495,0,1.495-2.342a1.722,1.722,0,0,0-.329-1.134,1.144,1.144,0,0,0-.943-.392,1.255,1.255,0,0,0-1.134.6,3.369,3.369,0,0,0-.371,1.749,1.723,1.723,0,0,0,.329,1.134,1.192,1.192,0,0,0,.954.381Z" transform="translate(3120.404 -6709.713)" fill="#5ebfa5"/>
      <path id="path7264" d="M-3061.881,6717.769a1.028,1.028,0,0,1-.774-.265,1.253,1.253,0,0,1-.254-.869q0-.2.01-.308l.647-6.349a.268.268,0,0,1,.127-.2.751.751,0,0,1,.35-.064h.191q.456,0,.424.255l-.657,6.466q-.042.434.286.435a.761.761,0,0,0,.223-.032.646.646,0,0,1,.138-.031c.049,0,.074.031.074.1a2.5,2.5,0,0,1-.053.456.439.439,0,0,1-.276.307,1.041,1.041,0,0,1-.456.106Z" transform="translate(3120.404 -6709.713)" fill="#5ebfa5"/>
      <path id="path7266" d="M-3058.528,6717.769a1.708,1.708,0,0,1-.837-.222,1.7,1.7,0,0,1-.668-.731,3.042,3.042,0,0,1-.254-1.335,4.734,4.734,0,0,1,.308-1.76,2.741,2.741,0,0,1,.89-1.2,2.158,2.158,0,0,1,1.325-.435,1.885,1.885,0,0,1,1.325.562,1.3,1.3,0,0,1,.2-.4.468.468,0,0,1,.339-.117h.085a.375.375,0,0,1,.286.085.283.283,0,0,1,.074.244l-.4,3.975q-.042.434.286.435a.8.8,0,0,0,.233-.032.652.652,0,0,1,.138-.031c.05,0,.074.031.074.1a2.485,2.485,0,0,1-.053.456.439.439,0,0,1-.276.307,1.088,1.088,0,0,1-.456.106q-1,0-1.028-1.05a2.1,2.1,0,0,1-.7.795,1.667,1.667,0,0,1-.891.255Zm.318-.933a1.063,1.063,0,0,0,.721-.339,2.681,2.681,0,0,0,.625-1.091l.159-1.4q.053-.445.1-.636a1.67,1.67,0,0,0-1.071-.371,1.216,1.216,0,0,0-1.1.689,3.505,3.505,0,0,0-.382,1.717q0,1.43.954,1.431Z" transform="translate(3120.404 -6709.713)" fill="#5ebfa5"/>
      <path id="path7268" d="M-3052.158,6717.769a1.772,1.772,0,0,1-.784-.169,2.313,2.313,0,0,1-.594-.4,1.2,1.2,0,0,1-.18.393.4.4,0,0,1-.329.127h-.106q-.382,0-.371-.254l.795-7.483q.032-.265.509-.265h.127q.456,0,.456.265l-.318,3.053a2.04,2.04,0,0,1,.7-.71,1.629,1.629,0,0,1,.859-.244,2.08,2.08,0,0,1,.943.223,1.734,1.734,0,0,1,.731.731,2.607,2.607,0,0,1,.3,1.325,4.23,4.23,0,0,1-.35,1.76,2.866,2.866,0,0,1-.964,1.219,2.4,2.4,0,0,1-1.42.435Zm-.169-.922a1.472,1.472,0,0,0,1.357-.668,3.218,3.218,0,0,0,.424-1.749,1.575,1.575,0,0,0-.307-1.092,1.1,1.1,0,0,0-.859-.329,1.147,1.147,0,0,0-.752.339,2.58,2.58,0,0,0-.625,1.07l-.148,1.41q-.063.445-.106.646a1.749,1.749,0,0,0,.424.265,1.574,1.574,0,0,0,.594.106Z" transform="translate(3120.404 -6709.713)" fill="#5ebfa5"/>
      <path id="path7270" d="M-3046.028,6717.769a2.3,2.3,0,0,1-1.717-.615,2.442,2.442,0,0,1-.6-1.77,4.027,4.027,0,0,1,.657-2.375,2.393,2.393,0,0,1,2.088-.933,2.179,2.179,0,0,1,1.675.636,2.47,2.47,0,0,1,.594,1.77,3.722,3.722,0,0,1-.71,2.448A2.438,2.438,0,0,1-3046.028,6717.769Zm.074-.911q1.494,0,1.494-2.342a1.722,1.722,0,0,0-.329-1.134,1.143,1.143,0,0,0-.943-.392,1.255,1.255,0,0,0-1.134.6,3.369,3.369,0,0,0-.371,1.749,1.722,1.722,0,0,0,.329,1.134,1.191,1.191,0,0,0,.954.381Z" transform="translate(3120.404 -6709.713)" fill="#5ebfa5"/>
      <path id="path7272" d="M-3041.827,6717.715a.73.73,0,0,1-.361-.074.206.206,0,0,1-.106-.2l.392-3.646a6.48,6.48,0,0,0,.042-.679,2.7,2.7,0,0,0-.021-.371,1.936,1.936,0,0,1-.021-.212q.01-.159.212-.233a1.991,1.991,0,0,1,.636-.074q.18,0,.244.212a1.35,1.35,0,0,1,.042.5,2.014,2.014,0,0,1,.594-.625,1.329,1.329,0,0,1,.752-.233.583.583,0,0,1,.371.117.382.382,0,0,1,.148.317,1.168,1.168,0,0,1-.106.466q-.1.234-.212.233a.918.918,0,0,1-.2-.053,1.119,1.119,0,0,0-.371-.053,1.066,1.066,0,0,0-.541.17,1.461,1.461,0,0,0-.488.487l-.371,3.678c-.021.184-.194.275-.519.275Z" transform="translate(3120.404 -6709.713)" fill="#5ebfa5"/>
      <path id="path7274" d="M-3037.039,6717.769a1.708,1.708,0,0,1-.837-.222,1.7,1.7,0,0,1-.668-.731,3.043,3.043,0,0,1-.254-1.335,4.734,4.734,0,0,1,.307-1.76,2.741,2.741,0,0,1,.89-1.2,2.159,2.159,0,0,1,1.325-.435,1.885,1.885,0,0,1,1.325.562,1.3,1.3,0,0,1,.2-.4.468.468,0,0,1,.339-.117h.085a.375.375,0,0,1,.286.085.284.284,0,0,1,.074.244l-.4,3.975q-.042.434.286.435a.8.8,0,0,0,.233-.032.648.648,0,0,1,.137-.031c.05,0,.074.031.074.1a2.485,2.485,0,0,1-.053.456.438.438,0,0,1-.275.307,1.09,1.09,0,0,1-.456.106q-1,0-1.028-1.05a2.094,2.094,0,0,1-.7.795,1.667,1.667,0,0,1-.891.255Zm.318-.933a1.063,1.063,0,0,0,.721-.339,2.679,2.679,0,0,0,.625-1.091l.159-1.4q.053-.445.1-.636a1.67,1.67,0,0,0-1.071-.371,1.216,1.216,0,0,0-1.1.689,3.505,3.505,0,0,0-.382,1.717q0,1.43.954,1.431Z" transform="translate(3120.404 -6709.713)" fill="#5ebfa5"/>
      <path id="path7276" d="M-3031.337,6717.769a1.091,1.091,0,0,1-1.24-1.229q0-.085.021-.3l.329-3.18h-.445q-.222,0-.223-.254l.011-.106.021-.169a.6.6,0,0,1,.085-.286.224.224,0,0,1,.2-.1h.466l.212-1.07a.308.308,0,0,1,.138-.212.657.657,0,0,1,.329-.063h.1a.555.555,0,0,1,.329.074.211.211,0,0,1,.074.223l-.106,1.05h.753q.233,0,.233.265l-.011.117-.01.148a.586.586,0,0,1-.1.3.223.223,0,0,1-.191.085h-.774l-.329,3.2a.987.987,0,0,0-.011.159.394.394,0,0,0,.445.445,1.2,1.2,0,0,0,.307-.032.955.955,0,0,1,.159-.031.043.043,0,0,1,.042.021c.014.007.021.032.021.074a2.5,2.5,0,0,1-.053.456.411.411,0,0,1-.276.307A1.213,1.213,0,0,1-3031.337,6717.769Z" transform="translate(3120.404 -6709.713)" fill="#5ebfa5"/>
      <path id="path7278" d="M-3028.223,6717.769a.981.981,0,0,1-.71-.254,1.074,1.074,0,0,1-.265-.805,2.616,2.616,0,0,1,.01-.265l.4-4.049q.032-.265.509-.265h.117q.487,0,.466.265l-.4,4.039a.578.578,0,0,0,.042.339.26.26,0,0,0,.233.1.761.761,0,0,0,.223-.032.646.646,0,0,1,.138-.031c.049,0,.074.031.074.1a2.5,2.5,0,0,1-.053.456.44.44,0,0,1-.286.307,1.187,1.187,0,0,1-.5.106Zm.064-6.317c-.375,0-.555-.089-.541-.265l.074-.689c.014-.176.212-.265.594-.265a.824.824,0,0,1,.413.074.184.184,0,0,1,.117.191l-.064.689C-3027.587,6711.363-3027.785,6711.452-3028.159,6711.452Z" transform="translate(3120.404 -6709.713)" fill="#5ebfa5"/>
      <path id="path7280" d="M-3024.856,6717.715a.946.946,0,0,1-.318-.042.254.254,0,0,1-.148-.18l-1.166-5.1a.163.163,0,0,1,.1-.2,1.017,1.017,0,0,1,.424-.064h.138q.413,0,.456.191l.541,2.417q.19.922.3,1.717h.053a17.015,17.015,0,0,1,.625-1.728l1.039-2.406a.256.256,0,0,1,.148-.148.862.862,0,0,1,.307-.042h.191a1,1,0,0,1,.329.042.136.136,0,0,1,.117.138.447.447,0,0,1-.042.18l-2.237,5.035q-.063.191-.488.191Z" transform="translate(3120.404 -6709.713)" fill="#5ebfa5"/>
      <path id="path7282" d="M-3019.094,6717.769a2.3,2.3,0,0,1-1.717-.615,2.442,2.442,0,0,1-.6-1.77,4.029,4.029,0,0,1,.657-2.375,2.394,2.394,0,0,1,2.088-.933,2.179,2.179,0,0,1,1.675.636,2.469,2.469,0,0,1,.594,1.77,3.721,3.721,0,0,1-.71,2.448A2.438,2.438,0,0,1-3019.094,6717.769Zm.074-.911q1.495,0,1.494-2.342a1.721,1.721,0,0,0-.329-1.134,1.143,1.143,0,0,0-.943-.392,1.255,1.255,0,0,0-1.134.6,3.369,3.369,0,0,0-.371,1.749,1.722,1.722,0,0,0,.329,1.134,1.192,1.192,0,0,0,.954.381Z" transform="translate(3120.404 -6709.713)" fill="#5ebfa5"/>
      <path id="path7284" d="M-3008.647,6712.129q.466,0,.466.191a.431.431,0,0,1-.042.17l-3.4,7.176q-.1.223-.541.223h-.169c-.276,0-.413-.056-.413-.17a.392.392,0,0,1,.074-.191l1.06-2.088-1.293-4.833a.778.778,0,0,0-.032-.138.467.467,0,0,1-.021-.127q0-.212.519-.212h.18q.4,0,.456.191l.678,2.671q.074.264.212.975h.032a10.453,10.453,0,0,1,.382-.975l1.24-2.671q.1-.191.509-.191Z" transform="translate(3120.404 -6709.713)" fill="#5ebfa5"/>
      <path id="path7286" d="M-3004.6,6717.715a.685.685,0,0,1-.371-.074.234.234,0,0,1-.074-.233l.7-6.784a.368.368,0,0,1,.106-.265.4.4,0,0,1,.275-.085h1.834a2.759,2.759,0,0,1,1.791.5,1.741,1.741,0,0,1,.6,1.441,1.989,1.989,0,0,1-.382,1.229,1.739,1.739,0,0,1-1.028.646v.042a.979.979,0,0,1,.413.329,1.687,1.687,0,0,1,.3.573l.71,2.332a.893.893,0,0,1,.021.148q0,.2-.52.2h-.2q-.424,0-.466-.191l-.6-2.067a1.256,1.256,0,0,0-.424-.721,1.461,1.461,0,0,0-.869-.2h-.827l-.307,2.915a.249.249,0,0,1-.148.2.824.824,0,0,1-.361.063Zm2.4-4.166a1.326,1.326,0,0,0,.965-.308,1.141,1.141,0,0,0,.339-.858,1.045,1.045,0,0,0-.329-.848,1.544,1.544,0,0,0-1.007-.275h-1.028l-.244,2.29Z" transform="translate(3120.404 -6709.713)" fill="#5ebfa5"/>
      <path id="path7288" d="M-2996.711,6715.469a5.722,5.722,0,0,1-.975-.074v.021a1.447,1.447,0,0,0,.361,1.124,1.583,1.583,0,0,0,1.06.318,2.38,2.38,0,0,0,.774-.117,4.475,4.475,0,0,0,.657-.286.7.7,0,0,1,.212-.1c.028,0,.046.007.053.021a.165.165,0,0,1,.021.106,3,3,0,0,1-.063.583q-.074.351-.668.53a4.023,4.023,0,0,1-1.1.17,2.839,2.839,0,0,1-1.749-.509,2.042,2.042,0,0,1-.678-1.728,3.942,3.942,0,0,1,.742-2.522,2.582,2.582,0,0,1,2.131-.933,2.3,2.3,0,0,1,1.113.233,1.433,1.433,0,0,1,.615.573,1.337,1.337,0,0,1,.18.646,1.589,1.589,0,0,1-.784,1.474,3.613,3.613,0,0,1-1.9.466Zm.721-2.48a1.458,1.458,0,0,0-1.092.435,2.125,2.125,0,0,0-.541,1.2h.678a3.769,3.769,0,0,0,1.219-.2.78.78,0,0,0,.594-.773.566.566,0,0,0-.244-.477.979.979,0,0,0-.615-.18Z" transform="translate(3120.404 -6709.713)" fill="#5ebfa5"/>
      <path id="path7290" d="M-2991.485,6717.769a1.091,1.091,0,0,1-1.24-1.229c0-.057.007-.155.021-.3l.329-3.18h-.445q-.223,0-.223-.254l.011-.106.021-.169a.594.594,0,0,1,.085-.286.224.224,0,0,1,.2-.1h.466l.212-1.07a.308.308,0,0,1,.138-.212.657.657,0,0,1,.329-.063h.1a.554.554,0,0,1,.329.074.211.211,0,0,1,.074.223l-.106,1.05h.752q.233,0,.233.265l-.01.117-.011.148a.583.583,0,0,1-.1.3.223.223,0,0,1-.191.085h-.774l-.329,3.2a.987.987,0,0,0-.011.159.394.394,0,0,0,.445.445,1.2,1.2,0,0,0,.308-.032.958.958,0,0,1,.159-.031.043.043,0,0,1,.042.021c.014.007.021.032.021.074a2.5,2.5,0,0,1-.053.456.411.411,0,0,1-.276.307A1.213,1.213,0,0,1-2991.485,6717.769Z" transform="translate(3120.404 -6709.713)" fill="#5ebfa5"/>
      <path id="path7292" d="M-2988.912,6717.715a.729.729,0,0,1-.36-.074.206.206,0,0,1-.106-.2l.392-3.646a6.421,6.421,0,0,0,.042-.679,2.694,2.694,0,0,0-.021-.371,2,2,0,0,1-.021-.212q.011-.159.212-.233a1.993,1.993,0,0,1,.636-.074q.18,0,.244.212a1.349,1.349,0,0,1,.042.5,2.014,2.014,0,0,1,.594-.625,1.329,1.329,0,0,1,.752-.233.584.584,0,0,1,.371.117.382.382,0,0,1,.148.317,1.167,1.167,0,0,1-.106.466q-.1.234-.212.233a.915.915,0,0,1-.2-.053,1.12,1.12,0,0,0-.371-.053,1.066,1.066,0,0,0-.541.17,1.457,1.457,0,0,0-.488.487l-.371,3.678c-.021.184-.194.275-.52.275Z" transform="translate(3120.404 -6709.713)" fill="#5ebfa5"/>
      <path id="path7294" d="M-2984.5,6717.769a.981.981,0,0,1-.71-.254,1.074,1.074,0,0,1-.265-.805,2.616,2.616,0,0,1,.01-.265l.4-4.049q.032-.265.509-.265h.117q.487,0,.466.265l-.4,4.039a.578.578,0,0,0,.042.339.26.26,0,0,0,.233.1.761.761,0,0,0,.223-.032.646.646,0,0,1,.138-.031c.049,0,.074.031.074.1a2.5,2.5,0,0,1-.053.456.44.44,0,0,1-.286.307,1.187,1.187,0,0,1-.5.106Zm.064-6.317c-.375,0-.555-.089-.541-.265l.074-.689c.014-.176.212-.265.594-.265a.824.824,0,0,1,.413.074.185.185,0,0,1,.117.191l-.064.689C-2983.863,6711.363-2984.061,6711.452-2984.436,6711.452Z" transform="translate(3120.404 -6709.713)" fill="#5ebfa5"/>
      <path id="path7296" d="M-2980.507,6717.769a1.772,1.772,0,0,1-.784-.169,2.319,2.319,0,0,1-.594-.4,1.2,1.2,0,0,1-.18.393.4.4,0,0,1-.329.127h-.106q-.382,0-.371-.254l.795-7.483q.032-.265.509-.265h.127q.456,0,.456.265l-.318,3.053a2.038,2.038,0,0,1,.7-.71,1.628,1.628,0,0,1,.858-.244,2.082,2.082,0,0,1,.943.223,1.734,1.734,0,0,1,.731.731,2.607,2.607,0,0,1,.3,1.325,4.23,4.23,0,0,1-.35,1.76,2.868,2.868,0,0,1-.964,1.219,2.4,2.4,0,0,1-1.42.435Zm-.17-.922a1.472,1.472,0,0,0,1.357-.668,3.22,3.22,0,0,0,.424-1.749,1.576,1.576,0,0,0-.307-1.092,1.1,1.1,0,0,0-.859-.329,1.147,1.147,0,0,0-.753.339,2.582,2.582,0,0,0-.625,1.07l-.148,1.41q-.064.445-.106.646a1.749,1.749,0,0,0,.424.265,1.574,1.574,0,0,0,.594.106Z" transform="translate(3120.404 -6709.713)" fill="#5ebfa5"/>
      <path id="path7298" d="M-2971.727,6716.8c.05,0,.074.031.074.1a2.5,2.5,0,0,1-.053.456.409.409,0,0,1-.265.307,1.1,1.1,0,0,1-.456.106,1.055,1.055,0,0,1-.742-.244,1.188,1.188,0,0,1-.318-.785,2.584,2.584,0,0,1-.837.764,1.989,1.989,0,0,1-.975.265,1.436,1.436,0,0,1-1.039-.339,1.311,1.311,0,0,1-.35-.986,2.3,2.3,0,0,1,.01-.255l.382-3.794q.032-.265.509-.265h.127q.487,0,.456.265l-.361,3.6a.8.8,0,0,0-.01.149q0,.688.731.688a1.243,1.243,0,0,0,.795-.339,2.473,2.473,0,0,0,.668-1.091l.318-3.01q.032-.265.509-.265h.117q.487,0,.466.265l-.4,4.039q-.042.434.286.435a.758.758,0,0,0,.222-.032.649.649,0,0,1,.138-.031Z" transform="translate(3120.404 -6709.713)" fill="#5ebfa5"/>
      <path id="path7300" d="M-2969.759,6717.769a.981.981,0,0,1-.71-.254,1.074,1.074,0,0,1-.265-.805,2.533,2.533,0,0,1,.011-.265l.4-4.049q.032-.265.509-.265h.117q.487,0,.466.265l-.4,4.039a.578.578,0,0,0,.042.339.26.26,0,0,0,.233.1.76.76,0,0,0,.223-.032.646.646,0,0,1,.138-.031c.049,0,.074.031.074.1a2.5,2.5,0,0,1-.053.456.441.441,0,0,1-.286.307,1.189,1.189,0,0,1-.5.106Zm.064-6.317c-.375,0-.555-.089-.541-.265l.074-.689c.014-.176.212-.265.594-.265a.824.824,0,0,1,.413.074.184.184,0,0,1,.117.191l-.064.689C-2969.123,6711.363-2969.321,6711.452-2969.7,6711.452Z" transform="translate(3120.404 -6709.713)" fill="#5ebfa5"/>
      <path id="path7302" d="M-2966.159,6717.769a2.038,2.038,0,0,1-.922-.222,1.875,1.875,0,0,1-.742-.742,2.75,2.75,0,0,1-.286-1.335,4.6,4.6,0,0,1,.318-1.76,2.748,2.748,0,0,1,.922-1.2,2.255,2.255,0,0,1,1.367-.435,2.038,2.038,0,0,1,1.346.466l.276-2.565q.032-.265.52-.265h.117q.5,0,.466.308l-.668,6.413q-.042.434.286.435a.76.76,0,0,0,.223-.032.646.646,0,0,1,.138-.031c.049,0,.074.031.074.1a2.5,2.5,0,0,1-.053.456.439.439,0,0,1-.276.307,1.027,1.027,0,0,1-.445.106,1.035,1.035,0,0,1-.763-.255,1.225,1.225,0,0,1-.276-.795,2.139,2.139,0,0,1-.721.795,1.684,1.684,0,0,1-.9.255Zm.318-.933a1.147,1.147,0,0,0,.752-.339,2.515,2.515,0,0,0,.636-1.081l.212-2.067a1.679,1.679,0,0,0-1.071-.35,1.362,1.362,0,0,0-1.272.667,3.343,3.343,0,0,0-.392,1.728,1.724,1.724,0,0,0,.286,1.113,1.064,1.064,0,0,0,.848.329Z" transform="translate(3120.404 -6709.713)" fill="#5ebfa5"/>
      <path id="path7304" d="M-2959.678,6717.769a2.3,2.3,0,0,1-1.717-.615,2.442,2.442,0,0,1-.6-1.77,4.029,4.029,0,0,1,.657-2.375,2.394,2.394,0,0,1,2.088-.933,2.179,2.179,0,0,1,1.675.636,2.469,2.469,0,0,1,.594,1.77,3.721,3.721,0,0,1-.71,2.448A2.438,2.438,0,0,1-2959.678,6717.769Zm.074-.911q1.495,0,1.494-2.342a1.721,1.721,0,0,0-.329-1.134,1.143,1.143,0,0,0-.943-.392,1.255,1.255,0,0,0-1.134.6,3.369,3.369,0,0,0-.371,1.749,1.722,1.722,0,0,0,.329,1.134,1.191,1.191,0,0,0,.954.381Z" transform="translate(3120.404 -6709.713)" fill="#5ebfa5"/>
    </g>
  </g>
</svg>
