<svg xmlns="http://www.w3.org/2000/svg" width="44" height="44" viewBox="0 0 44 44">
  <g id="Fill_283_Fill_284" data-name="Fill 283 + Fill 284" transform="translate(0 -0.352)">
    <path id="Fill_283" data-name="Fill 283" d="M12.783,6.711A6.56,6.56,0,0,0,6.392,0,6.56,6.56,0,0,0,0,6.711a6.729,6.729,0,0,0,3.456,5.928L2.131,22.37h8.522L9.327,12.639a6.729,6.729,0,0,0,3.456-5.928" transform="translate(15.979 12.228)" fill="#79d379"/>
    <path id="Fill_284" data-name="Fill 284" d="M22,44A22,22,0,1,1,44,22,22.025,22.025,0,0,1,22,44ZM22,4.4A17.6,17.6,0,1,0,39.6,22,17.619,17.619,0,0,0,22,4.4Z" transform="translate(0 0.352)" fill="#79d379"/>
  </g>
</svg>
