<svg id="g1167" xmlns="http://www.w3.org/2000/svg" width="34.928" height="50.764" viewBox="0 0 34.928 50.764">
  <path id="path1163" d="M-1367.454,1560.672a1.65,1.65,0,0,0-1.477.8l-3.181,5.163-15.4,8.833a1.649,1.649,0,0,0-.829,1.426l-.052,18.231a1.647,1.647,0,0,0,.16.714h0a1.647,1.647,0,0,0,.66.717l15.517,9.018,3.125,5.073a1.649,1.649,0,0,0,2.269.54,1.649,1.649,0,0,0,.539-2.269l-2.509-4.073,14.285-8.193a1.649,1.649,0,0,0,.829-1.426l.052-18.231a1.649,1.649,0,0,0-.82-1.43l-14.323-8.325,2.486-4.036a1.65,1.65,0,0,0,.068-1.652,1.649,1.649,0,0,0-1.4-.881Zm-3.429,9.063,14.116,8.2-.047,16.327-14.163,8.123-14.116-8.2.047-16.327Z" transform="translate(1388.394 -1560.671)" fill="#5ebfa5"/>
  <path id="path1165" d="M11.863,3.058,5.72,0,0,3.791.423,10.64,6.566,13.7l5.72-3.791Z" transform="translate(20.865 17.089) rotate(63.701)" fill="#5ebfa5"/>
</svg>
