<svg xmlns="http://www.w3.org/2000/svg" width="34.22" height="28.061" viewBox="0 0 34.22 28.061">
  <g id="layer1" transform="translate(208.992 -1.269)">
    <path id="path4707" d="M-208.492,28.829l-.5-.5V17.668l.5-.5c.5-.5.509-.5,2.58-.5s2.082,0,2.58.5l.5.5V28.329l-.5.5c-.5.5-.509.5-2.58.5S-207.994,29.327-208.492,28.829Zm9.239,0-.5-.5V10.14l.5-.5c.5-.5.509-.5,2.58-.5s2.082,0,2.58.5l.5.5V28.329l-.5.5c-.5.5-.509.5-2.58.5S-198.754,29.327-199.252,28.829Zm9.582,0-.5-.5V2.269l.5-.5c.5-.5.509-.5,2.58-.5s2.082,0,2.58.5l.5.5v26.06l-.5.5c-.5.5-.509.5-2.58.5S-189.173,29.327-189.671,28.829Zm9.239,0-.5-.5V11.508l.5-.5c.5-.5.509-.5,2.58-.5s2.082,0,2.58.5l.5.5V28.329l-.5.5c-.5.5-.509.5-2.58.5S-179.933,29.327-180.431,28.829Z" transform="translate(0 0)" fill="#79d379"/>
  </g>
</svg>
