<svg xmlns="http://www.w3.org/2000/svg" width="53.195" height="53.195" viewBox="0 0 53.195 53.195">
  <g id="layer1" transform="translate(-77.195 -23.074)">
    <circle id="path841" cx="26.597" cy="26.597" r="26.597" transform="translate(77.195 23.074)" fill="#79d379" opacity="0.997"/>
    <path id="path854" d="M67.7,82c0-.307.344-3.955.394-4.181.028-.124,2.235-2.409,4.905-5.077l4.855-4.851,2.059,2.059L81.975,72,77.124,76.86c-2.668,2.67-4.953,4.878-5.077,4.905-.226.05-3.874.394-4.181.394A.163.163,0,0,1,67.7,82ZM81.525,68.281,79.5,66.25l1.212-1.212,1.212-1.212,2.058,2.058,2.058,2.058-1.181,1.185c-.65.652-1.208,1.185-1.241,1.185S82.64,69.4,81.525,68.281Z" transform="translate(26.466 -23.322)" fill="#fff"/>
  </g>
</svg>
