<svg xmlns="http://www.w3.org/2000/svg" width="29.225" height="45.897" viewBox="0 0 29.225 45.897">
  <path id="path18815" d="M426.826-17.741c-.878-.038-1.977-.117-2.441-.175-5.342-.666-8.177-2.873-9.2-7.162-1.528-6.409,1.313-17.024,6.185-23.115l.515-.644-.438-.295a2.3,2.3,0,0,1,.437-3.978,4.105,4.105,0,0,1,.962-.187,3.586,3.586,0,0,0,.645-.084c0-.017-.231-.385-.514-.819a14.482,14.482,0,0,1-1.607-3.342,3.289,3.289,0,0,1,.142-2.278,1.73,1.73,0,0,1,1.539-.814,6.224,6.224,0,0,1,3.122.792c.054.024.218-.263.363-.639.773-2,1.925-2.99,3.13-2.687.832.209,1.729,1.336,2.325,2.923.093.248.215.43.272.4a15.288,15.288,0,0,1,1.793-.68,4.334,4.334,0,0,1,2.048,0,2.032,2.032,0,0,1,.972,1.023,4.058,4.058,0,0,1-.021,1.982,14.857,14.857,0,0,1-1.669,3.4l-.516.762.678.051a4.2,4.2,0,0,1,1,.186,2.3,2.3,0,0,1,.441,3.98l-.438.3.612.777a33.437,33.437,0,0,1,6.484,19.994,12,12,0,0,1-1.24,5.331c-1.433,2.718-3.895,4.193-7.949,4.763-.919.129-4.944.347-5.757.312l-1.878-.082Zm5.822-1.124c6.142-.45,8.97-2.583,9.775-7.372a24.794,24.794,0,0,0-.257-7.367c-.9-5.242-3.452-11.092-6.248-14.319l-.651-.751-2-.025-2-.025.233.4c.128.221.579,1.215,1,2.21.81,1.907.848,2.116.414,2.281-.479.182-.692-.115-1.5-2.1a11.217,11.217,0,0,0-1.188-2.392l-.285-.4h-1.533l-.3.419a10.357,10.357,0,0,0-1.325,3.2c-.841,2.821-.971,3.065-1.557,2.918-.35-.088-.38-.434-.1-1.208.132-.372.458-1.4.723-2.273a19.648,19.648,0,0,1,.845-2.324l.363-.728h-3.834l-.667.775a29.985,29.985,0,0,0-5.053,9.485,30.039,30.039,0,0,0-1.633,9.506,11.917,11.917,0,0,0,1,5.54c1.122,2.366,3.167,3.682,6.628,4.264.646.109,1.617.234,2.16.278,1.427.116,5.464.121,7,.009Zm-1.81-5.468c-.555-.557-.773-.843-.773-1.011s.217-.45.777-1.007c.855-.851,1.157-.967,1.43-.551.163.248.115.471-.171.788l-.19.211h.583a2.131,2.131,0,0,0,2.265-2.184c0-.5-.069-.683-.848-2.24-.943-1.883-1.015-2.209-.53-2.379a.5.5,0,0,1,.423,0,21.108,21.108,0,0,1,2,4.015,3.212,3.212,0,0,1-.874,2.871,3.488,3.488,0,0,1-2.242,1l-.737.064.233.277c.272.323.285.428.087.711-.281.4-.585.28-1.429-.568Zm-5.568-.535a3.319,3.319,0,0,1-2.675-3.6,5.938,5.938,0,0,1,.626-1.669c.407-.828.514-1.118.392-1.067-.379.159-.6.158-.781,0a.526.526,0,0,1-.067-.72,8.671,8.671,0,0,1,2.144-.827c.264,0,.485.366.835,1.385.323.939.324.95.146,1.148a.536.536,0,0,1-.91-.169,2.521,2.521,0,0,0-.21-.366,4.651,4.651,0,0,0-.571,1.017,3.145,3.145,0,0,0-.516,1.634,2.1,2.1,0,0,0,.666,1.615c.536.509.863.592,2.332.592,1.192,0,1.336.018,1.505.188a.492.492,0,0,1,.055.71c-.119.162-.264.184-1.338.2a12.93,12.93,0,0,1-1.634-.06Zm.444-9.47c-.232-.256-.2-.4.316-1.428a3.6,3.6,0,0,1,1.767-1.991,2.4,2.4,0,0,1,1.422-.306,2.489,2.489,0,0,1,1.317.243,3.153,3.153,0,0,1,1.408,1.18l.25.394.116-.321a.519.519,0,0,1,.994-.048,7.09,7.09,0,0,1-.583,2.285c-.193.214-.365.206-1.425-.066-1-.257-1.288-.461-1.192-.844.084-.337.405-.47.84-.35.41.113.425.049.11-.451a2.16,2.16,0,0,0-2.4-.909c-.768.225-1.125.58-1.688,1.681a6.987,6.987,0,0,1-.6,1.032.54.54,0,0,1-.652-.1Zm10.543-15.587a1.387,1.387,0,0,0,.663-1.027,1.371,1.371,0,0,0-.581-1.052c-.3-.185-.456-.189-7.118-.189s-6.814,0-7.118.189a1.371,1.371,0,0,0-.581,1.052,1.386,1.386,0,0,0,.663,1.027c.3.162.711.172,7.037.172S435.956-49.764,436.257-49.926Zm-2.27-4.03c1.412-1.923,2.318-4.009,2.144-4.938a.959.959,0,0,0-.318-.537c-.466-.369-1.571-.161-3.059.578-1.122.557-1.319.492-1.6-.525-.413-1.475-1.315-2.77-1.93-2.77s-1.345,1-1.883,2.6a5.611,5.611,0,0,1-.38.937c-.176.212-.507.151-1.279-.237-1.932-.969-3.19-.992-3.365-.062s.758,3.107,2.165,5.019l.422.573h8.621Z" transform="translate(-414.596 63.381)" fill="#79d379" stroke="#79d379" stroke-width="0.3"/>
</svg>
