<svg xmlns="http://www.w3.org/2000/svg" width="44.225" height="44.115" viewBox="0 0 44.225 44.115">
  <path id="path4841" d="M-281.878,49.841c0-.109,3.351-13.539,3.423-13.719.041-.1.09-.071.339.223a3.68,3.68,0,0,0,2.168,1.159l.282.044-.049.239a6.221,6.221,0,0,0,.074,1.887,5.451,5.451,0,0,0,2.3,3.258,5.342,5.342,0,0,0,3.368.832l.51-.063.044.3a3.957,3.957,0,0,0,1.1,2.164c.282.259.293.281.161.323-.078.025-3.2.81-6.931,1.746-5.1,1.279-6.79,1.678-6.79,1.607Zm15.777-5.078a1.341,1.341,0,0,1-.6-.428,1.429,1.429,0,0,1-.243-1.714c.067-.129,4.978-5.088,10.913-11.021l10.791-10.786,1.071,1.046a12.25,12.25,0,0,1,1.071,1.12c0,.123-21.577,21.577-21.836,21.712A1.606,1.606,0,0,1-266.1,44.763Zm-5.224-3.529a2.891,2.891,0,0,1-1.708-4.06c.178-.358,1.42-1.623,11.085-11.286l10.886-10.883,2.047,2.048,2.047,2.048-10.8,10.8c-5.94,5.942-10.933,10.891-11.095,11A3.085,3.085,0,0,1-271.325,41.234Zm-4.659-6.251a1.534,1.534,0,0,1-.61-2.173c.107-.171,8.685-8.757,18.842-18.859l2.824-2.809,1.073,1.073,1.073,1.073-10.767,10.774c-8.738,8.743-10.829,10.8-11.1,10.932a1.452,1.452,0,0,1-1.339-.011Zm28.668-19.665-5.9-5.9,1.339-1.325a6.909,6.909,0,0,1,2.564-1.97,4.874,4.874,0,0,1,2.144-.392,4.829,4.829,0,0,1,2.081.37c.93.363,1.181.572,3.689,3.056,1.32,1.308,2.528,2.557,2.684,2.775a5.636,5.636,0,0,1,.13,6.389,24.766,24.766,0,0,1-2.767,2.892C-241.388,21.215-244.073,18.562-247.316,15.318Z" transform="translate(281.878 -5.734)" fill="#79d379"/>
</svg>
