<svg xmlns="http://www.w3.org/2000/svg" width="31.583" height="35.262" viewBox="0 0 31.583 35.262">
  <path id="path19063" d="M556.34-27.644l-.748-.123A8.6,8.6,0,0,1,550.352-31a8.4,8.4,0,0,1-1.731-5.183,8.525,8.525,0,0,1,6.679-8.366,9.521,9.521,0,0,1,3.882.038,8.613,8.613,0,0,1,4.8,3.145,8.359,8.359,0,0,1,1.731,5.183,8.3,8.3,0,0,1-2.554,6.105,8.376,8.376,0,0,1-4.259,2.291,12.7,12.7,0,0,1-2.56.145Zm2.259-1.409a7.274,7.274,0,0,0,5.828-6.705,7.306,7.306,0,0,0-6.072-7.6,9.194,9.194,0,0,0-3.118.16,7.309,7.309,0,0,0-5.125,5.261,7.3,7.3,0,0,0,5.6,8.876,9.853,9.853,0,0,0,2.89.006Zm-2.338-8.707v-2.914H557.6v4.49h3.623v1.339h-4.962Zm-18.634,4.609a4.665,4.665,0,0,1-3.382-3.274c-.1-.366-.115-2.072-.115-11.472,0-7.71.025-11.169.085-11.46a4.553,4.553,0,0,1,2.447-3.051,5.834,5.834,0,0,1,1.124-.392c.321-.059,3.709-.085,10.791-.084,11.431,0,10.91-.021,12,.515a4.6,4.6,0,0,1,1.942,1.941c.522,1.06.514.93.515,8.507l0,6.83-.65-.314-.65-.314-.041-6.437c-.044-6.881-.029-6.625-.449-7.457a4.263,4.263,0,0,0-1.488-1.486c-.922-.467-.452-.448-11.189-.448-8.458,0-9.9.016-10.288.117a3.664,3.664,0,0,0-2.772,2.915c-.167.793-.172,20.308-.005,21.244a3.153,3.153,0,0,0,2.234,2.742c.477.147.744.156,4.979.156h4.475l.089.269a2.607,2.607,0,0,0,.306.571c.119.166.244.346.276.4.089.147-9.554.13-10.235-.018Zm2.8-8.7v-.63h7.185l-.05.2c-.028.11-.123.394-.211.63l-.161.43H540.43Zm0-6.34v-.669h15.832v1.339H540.43Zm0-6.34v-.63h15.832v1.26H540.43Z" transform="translate(-534.13 62.885)" fill="#4d4d4f"/>
</svg>
