<svg xmlns="http://www.w3.org/2000/svg" width="32.708" height="30.545" viewBox="0 0 32.708 30.545">
  <g id="Grupo_149" data-name="Grupo 149" transform="translate(-201.691 -78.193)">
    <g id="g18920" transform="translate(208.804 78.193)">
      <path id="path18918" d="M-3.361-.517A7.825,7.825,0,0,1,4.46,7.3a7.825,7.825,0,0,1-7.821,7.812A7.825,7.825,0,0,1-11.182,7.3,7.826,7.826,0,0,1-3.361-.517m0,17.047A9.25,9.25,0,0,0,5.883,7.3,9.25,9.25,0,0,0-3.361-1.94,9.25,9.25,0,0,0-12.6,7.3a9.25,9.25,0,0,0,9.243,9.234" transform="translate(12.604 1.94)" fill="#6d7278"/>
    </g>
    <g id="g18924" transform="translate(201.691 98.079)">
      <path id="path18922" d="M-8.724,0H-24a8.718,8.718,0,0,0-8.718,8.717V10a.713.713,0,0,0,1.423-.057V8.717a7.292,7.292,0,0,1,7.3-7.3H-8.724a7.292,7.292,0,0,1,7.3,7.3v1.23A.712.712,0,0,0-.007,10V8.717A8.718,8.718,0,0,0-8.724,0" transform="translate(32.715)" fill="#6d7278"/>
    </g>
  </g>
</svg>
