<svg xmlns="http://www.w3.org/2000/svg" width="18.374" height="46.223" viewBox="0 0 18.374 46.223">
  <path id="path18828" d="M383.636-21.745a6.428,6.428,0,0,1-4.191-1.806,4.474,4.474,0,0,1-1.14-2.053c-.054-.253-.063-2.4-.064-13.994v-13.7l.108-.242c.059-.133.218-.474.353-.759l.841-1.776,1.2-2.54c.334-.7.714-1.514.844-1.8s.411-.879.624-1.321.387-.819.387-.837-.056-.045-.124-.059a1.143,1.143,0,0,1-.608-.525c-.1-.2-.1-.255-.115-1.777-.017-1.823,0-1.937.273-2.251.339-.385-.073-.356,5.111-.37,3.3-.009,4.677,0,4.856.038a.749.749,0,0,1,.479.285.948.948,0,0,1,.281.442,14.269,14.269,0,0,1,.053,1.754,7.433,7.433,0,0,1-.073,1.76,1.175,1.175,0,0,1-.589.621c-.081.029-.148.066-.148.082s.215.462.478.991c.557,1.122,2.048,4.14,3.1,6.279l.737,1.993v13.451c0,15.292.019,14.187-.272,14.9a5,5,0,0,1-1.593,1.984,8.121,8.121,0,0,1-1.745.889,7.465,7.465,0,0,1-1.852.338c-.736.048-6.459.045-7.216,0Zm8.228-.952a5,5,0,0,0,3.117-2c.514-.8.524-.873.524-3.789V-30.87H379.05v2.385a19.365,19.365,0,0,0,.069,2.717,4.532,4.532,0,0,0,3.874,3.124,31.138,31.138,0,0,0,4.442.076l3.956-.011ZM390.7-31.174c.056-.071.054-.073-.017-.017a.283.283,0,0,0-.079.079c0,.037.037.013.1-.062Zm.36-.36c.056-.071.054-.073-.017-.017a.282.282,0,0,0-.079.079c0,.037.037.013.1-.062Zm4.434-9.014-.012-8.868h-16.41l-.012,8.868-.012,8.868H395.5Zm.012-11.346v-1.174l-.13-.285c-.071-.157-.923-2.381-1.892-4.335s-1.907-3.85-2.085-4.215l-.322-.663c-3.481-.034-4.075,0-7.559,0l-.375.8c-.206.439-.668,1.415-1.025,2.169-.712,1.5-.919,1.941-1.122,2.383-.226.491-1.4,2.958-1.669,3.507l-.253.517-.013,1.472-.013,1.472,8.106.011,8.229.013.124,0v-1.672Zm-4.577-11.493a4.8,4.8,0,0,0,.978-.058,24.636,24.636,0,0,0,0-3.2c-.077-.093-9.176-.093-9.253,0a24.636,24.636,0,0,0,0,3.2c.032.032,1.191.05,3.624.055,1.522.031,3.268.036,4.656,0Z" transform="translate(-378.09 67.7)" fill="#79d379" stroke="#79d379" stroke-width="0.3"/>
</svg>
