<svg xmlns="http://www.w3.org/2000/svg" width="65.979" height="57.151" viewBox="0 0 65.979 57.151">
  <g id="layer1" transform="translate(30 23)">
    <g id="layer1-2" data-name="layer1" transform="translate(-30 -23)">
      <path id="path17730" d="M-188.844,146.347c-4.248-.675-8.929-2.333-15.263-5.4l-2.763-1.34-3.862.072c-3.421.064-3.9.048-4.18-.137-.376-.246-.473-.489-2.212-5.5-.725-2.09-1.455-4.159-1.622-4.6l-.3-.8.27-.361.269-.361,6.441-.917a74.945,74.945,0,0,0,9-1.571,18.906,18.906,0,0,1,6.62-.885,56.655,56.655,0,0,1,10.434,1.909,6.887,6.887,0,0,1,2.984,1.557c.672.944.317,2.313-.948,3.662a9.06,9.06,0,0,1-4.805,2.568,16,16,0,0,1-4.988.01c-.869-.211-.854-.112.064.413a11.467,11.467,0,0,0,5.762,1.574c3.12-.018,5.251-1.214,7.517-4.222a3.472,3.472,0,0,1,.825-.863c.5-.148,19.865-3.541,20.657-3.619a7.693,7.693,0,0,1,3.974.681c1.624.8,2.2,1.905,1.76,3.394-.335,1.144-.819,1.594-2.652,2.463-3.254,1.542-26.512,11.927-27.193,12.142A20.255,20.255,0,0,1-188.844,146.347Zm-14.474-26.15a2.9,2.9,0,0,1-.864-.529c-.8-.764-.764-.325-.764-10.268v-9.078l-.669-.064a1.212,1.212,0,0,1-.966-.41l-.3-.346V90.019l.34-.34.34-.34h40.378l.34.34.34.34V99.5l-.3.346a1.21,1.21,0,0,1-.964.41l-.666.064-.035,9.247-.035,9.247-.4.495a3.826,3.826,0,0,1-.837.753c-.431.254-.694.258-17.441.285C-200.028,120.371-202.9,120.346-203.318,120.2Zm21.039-23.712a1.979,1.979,0,0,0,.1-3.3c-.415-.3-.466-.3-3.834-.3s-3.419,0-3.834.3a2.057,2.057,0,0,0-.63,2.559c.5.975.947,1.073,4.658,1.036C-182.971,96.749-182.69,96.726-182.279,96.485Z" transform="translate(219.048 -89.34)" fill="#79d379"/>
    </g>
  </g>
</svg>
