<svg id="layer1" xmlns="http://www.w3.org/2000/svg" width="65.885" height="63.241" viewBox="0 0 65.885 63.241">
  <path id="path826" d="M41,124.811a8.218,8.218,0,0,1-6.488-5.991,9.472,9.472,0,0,1,0-3.757,8.529,8.529,0,0,1,3.392-4.792,10.038,10.038,0,0,1,1.833-.871,5.8,5.8,0,0,1,2.525-.387,5.8,5.8,0,0,1,2.525.387,10.038,10.038,0,0,1,1.833.871,8.529,8.529,0,0,1,3.392,4.792,9.472,9.472,0,0,1,0,3.757,8.1,8.1,0,0,1-6.343,5.941A6.643,6.643,0,0,1,41,124.811Zm2.556-5.011a3.132,3.132,0,0,0,.155-5.63,3.175,3.175,0,0,0-4.615,2.765,3.281,3.281,0,0,0,1.863,2.862,3.7,3.7,0,0,0,2.6,0Zm37.592,5.078c-.142-.032-.578-.121-.969-.2a9.648,9.648,0,0,1-1.8-.658,7.949,7.949,0,1,1,10.84-10.376,7.192,7.192,0,0,1,.687,3.424,7.863,7.863,0,0,1-5.487,7.427,9.521,9.521,0,0,1-3.276.381Zm2.132-5.106a2.615,2.615,0,0,0,1.5-1.475,3.171,3.171,0,0,0-1.6-4.268,4.039,4.039,0,0,0-2.552.052,3.55,3.55,0,0,0-1.622,1.777,3.265,3.265,0,0,0,1.733,4,3.842,3.842,0,0,0,2.538-.082Zm-54.777-1.507c0-1.81,1.234-6.45,2.578-9.71l.372-.9-.443-.146a1.145,1.145,0,0,1-.571-.386,20.313,20.313,0,0,1-.048-4.062c.227-.592.136-.587,11.87-.587s11.643,0,11.87.587a15.824,15.824,0,0,1,.08,2.049c0,1.8-.008,1.848-.323,2.144-.384.361-.407.75-.134,2.3a24.378,24.378,0,0,0,1.327,4.707l.489,1.2,8.558.033,8.558.033,0,1.323a11.626,11.626,0,0,0,.08,1.614l.078.291H51.419l.125-.872a9.749,9.749,0,0,0-1.3-5.758,11.445,11.445,0,0,0-3.268-3.224,9.623,9.623,0,0,0-6.852-1.016,9.32,9.32,0,0,0-6.69,6.133A9.018,9.018,0,0,0,33,118.008l.121.743H28.507v-.484Zm39.106-3.858a3.185,3.185,0,0,1-1.241-.8c-.593-.581-.7-.807-2.379-5.065-.967-2.451-1.861-4.736-1.987-5.076-.15-.407-.317-.638-.489-.675-.144-.031-2.586-.411-5.429-.844s-5.532-.9-5.977-1.048a5.153,5.153,0,0,1-3.2-3.969,32.585,32.585,0,0,1-.331-7.171,31.871,31.871,0,0,1,2.077-8.8,6.315,6.315,0,0,1,5.076-3.9,3.451,3.451,0,0,1,3.775,2.1,6.9,6.9,0,0,1,.53,3.208l-.093.62-.514-.689c-.283-.379-.773-1.137-1.089-1.685-.729-1.263-1.373-1.7-2.523-1.7a2.5,2.5,0,0,0-2.357,1.465,2,2,0,0,0-.3,1.405c.128,1.325,1.838,3.874,4.11,6.127l1.408,1.4-.2,1.7a18.4,18.4,0,0,0-.122,4.224c.466,0,8.648,1.349,9.035,1.49a3.861,3.861,0,0,1,1.677,1.484c.1.189,1.238,3.012,2.534,6.275,2.208,5.558,2.356,5.985,2.356,6.772a3.238,3.238,0,0,1-2.3,3.169A3.008,3.008,0,0,1,67.613,114.408ZM89.744,111.8a9.924,9.924,0,0,0-1.836-2.041,10.977,10.977,0,0,0-3.978-1.94,9.253,9.253,0,0,0-2.39-.143,8.857,8.857,0,0,0-5.683,2.229l-.78.662-2.951-8.616c-1.623-4.739-2.992-8.683-3.043-8.765-.065-.106-.5.005-1.5.379-1.544.58-2.011.6-2.486.088a1.692,1.692,0,0,1-.352-.62l-.082-.332,1.009.115a15.84,15.84,0,0,0,2.144.057c1.534-.078,2.176-.456,2.759-1.62l.405-.81.382,1.073c.21.59.691,1.978,1.069,3.084l.687,2.011,1.065.545a12.526,12.526,0,0,1,6.066,6.751l.48,1.242,1.051.084a10.163,10.163,0,0,1,7.083,3.295,6.794,6.794,0,0,1,1.783,2.84c0,.275-.342.536-.7.536C89.835,111.9,89.744,111.856,89.744,111.8ZM25.471,100.9a2.01,2.01,0,0,1-.482-.416c-.207-.253-.223-.931-.226-9.085,0-6.066.041-8.907.137-9.119a1.438,1.438,0,0,1,.5-.523c.33-.2,1.186-.215,9.168-.215,9.767,0,9.4-.031,9.77.844.273.653.273,17.167,0,17.82-.366.876,0,.845-9.79.84-6.167,0-8.9-.047-9.082-.146Zm50.883-5.028a4.062,4.062,0,0,1,1.076-7.835c.658-.068.705-.051,1.119.387.647.686.914,1.75.914,3.648,0,1.817-.273,2.964-.865,3.639a.968.968,0,0,1-.978.424,4.41,4.41,0,0,1-1.265-.262ZM65.63,92.253a17.265,17.265,0,0,1-12.42-7.584c-1.105-1.618-1.491-2.431-1.495-3.147a2.111,2.111,0,0,1,3.91-1.042,14.955,14.955,0,0,0,5.859,6.1,11.2,11.2,0,0,0,5.627,1.424c1.994,0,2.79.436,3.13,1.7a2.105,2.105,0,0,1-1.068,2.343,8.892,8.892,0,0,1-3.543.209ZM58.35,76.891a7.008,7.008,0,0,1-2.067-.759,7.675,7.675,0,0,1-1.55-1.3c0-.055.363-.012.807.1a13.5,13.5,0,0,0,2.618.209c3.19.022,3.48-.347,2.966-3.783-.163-1.09-.168-1.382-.032-1.668.28-.584,1.438-1.079,3.226-1.378l.478-.08.271.877a7.3,7.3,0,0,1,.125,3.415,6.2,6.2,0,0,1-4.611,4.313,4.77,4.77,0,0,1-2.231.059ZM56.606,74.56c-2.6-.4-3.829-1.27-4.554-3.223a7.081,7.081,0,0,1,1.586-7.65,7,7,0,0,1,8.706-.883,7.292,7.292,0,0,1,2.894,4.045c.222.855.37.743-1.314.995-1.833.274-3.046.882-3.382,1.695-.145.35-.135.67.067,2.13.276,2,.209,2.47-.391,2.764a10.281,10.281,0,0,1-3.613.128Z" transform="translate(-24.763 -61.682)" fill="#79d379"/>
</svg>
