<svg xmlns="http://www.w3.org/2000/svg" width="967.908" height="937.583" viewBox="0 0 967.908 937.583">
  <g id="_3783600" data-name="3783600" transform="translate(-24.396 -26.975)">
    <g id="BACKGROUND" transform="translate(24.396 26.975)">
      <g id="Grupo_316" data-name="Grupo 316">
        <path id="Trazado_2515" data-name="Trazado 2515" d="M538.248,27.453S1050.092-5.256,986.9,470.536,582.481,767.905,475.058,729.248,124.349,833.326,51.681,654.9,23.244,12.586,538.248,27.453Z" transform="translate(-24.396 -26.975)" fill="#a7f8d5" opacity="0.5"/>
        <ellipse id="Elipse_76" data-name="Elipse 76" cx="452.889" cy="30.273" rx="452.889" ry="30.273" transform="translate(33.627 877.037)" fill="#051f38" opacity="0.2"/>
      </g>
    </g>
    <g id="OBJECTS" transform="translate(126.659 37.996)">
      <g id="Grupo_350" data-name="Grupo 350" transform="translate(378.201 78.636)">
        <g id="Grupo_341" data-name="Grupo 341">
          <g id="Grupo_323" data-name="Grupo 323" transform="translate(250.73 308.03)">
            <g id="Grupo_319" data-name="Grupo 319" transform="translate(5.893 264.619)">
              <g id="Grupo_317" data-name="Grupo 317" transform="translate(0 36.165)">
                <path id="Trazado_2516" data-name="Trazado 2516" d="M508.827,396.035s-58.981,167.023-65.3,167.023-132.707,39.668-21.065-10.439c0,0,12.639-181.637,31.6-189.989S508.827,396.035,508.827,396.035Z" transform="translate(-371.809 -361.526)" fill="#965450"/>
                <path id="Trazado_2517" data-name="Trazado 2517" d="M438.172,516.329c19.2-49.414,44.227-120.295,44.227-120.295s-35.81-41.755-54.768-33.4c-12.281,5.409-21.909,83.532-27.169,137.894C413.147,505.522,425.655,510.928,438.172,516.329Z" transform="translate(-345.381 -361.526)" fill="#76413b"/>
                <path id="Trazado_2518" data-name="Trazado 2518" d="M406.71,457.75s-4.914,11.136,41.428-.7l-2.107,6.264S315.431,493.94,406.71,457.75Z" transform="translate(-374.314 -257.611)" fill="#051f38"/>
              </g>
              <g id="Grupo_318" data-name="Grupo 318" transform="translate(40.163)">
                <path id="Trazado_2519" data-name="Trazado 2519" d="M454.577,344.2S545.8,496.32,541.74,501.12s-54.605,126.272-21.606,9.289c0,0-132.3-126.311-126.573-146.076S454.577,344.2,454.577,344.2Z" transform="translate(-393.38 -344.204)" fill="#965450"/>
                <path id="Trazado_2520" data-name="Trazado 2520" d="M455.878,449.864s5.452,10.885,26.083-31.91l3.488,5.625S425.2,542.438,455.878,449.864Z" transform="translate(-333.862 -263.98)" fill="#051f38"/>
                <path id="Trazado_2521" data-name="Trazado 2521" d="M507.645,434.732c-24.462-42.824-53.068-90.528-53.068-90.528s-55.291.365-61.016,20.128c-3.709,12.8,50.5,70.314,89.145,109.239A160.239,160.239,0,0,0,507.645,434.732Z" transform="translate(-393.38 -344.204)" fill="#76413b"/>
              </g>
            </g>
            <g id="Grupo_322" data-name="Grupo 322">
              <path id="Trazado_2522" data-name="Trazado 2522" d="M536.545,253.153s-55.822-61.59-88.471-22.966-83.205,165.979-75.833,218.174c4.333,30.682,34.135,63.512,57.972,85.376l-20.056,111.92s82.152,21.922,76.886,21.922c-3.16,0,81.1-224.437,89.524-295.422S536.545,253.153,536.545,253.153Z" transform="translate(-371.516 -217.458)" fill="#0a3b77"/>
              <g id="Grupo_321" data-name="Grupo 321">
                <path id="Trazado_2523" data-name="Trazado 2523" d="M462.1,267.116c15.662-.188,32.657-2.359,47.623-8.449-3-3.591-4.925-5.514-4.925-5.514s-55.821-61.59-88.471-22.966a172.736,172.736,0,0,0-16.114,23.619C418.826,263.834,441.846,267.356,462.1,267.116Z" transform="translate(-339.767 -217.458)" fill="#352c38" opacity="0.2" style="mix-blend-mode: multiply;isolation: isolate"/>
                <g id="Grupo_320" data-name="Grupo 320" transform="translate(0 79.47)">
                  <path id="Trazado_2524" data-name="Trazado 2524" d="M410.212,255.522c-23.219,52.33-42.746,117.63-37.971,151.433,4.3,30.476,33.733,63.066,57.488,84.929,8.432-56.83,23.843-135.687,33.019-181.174C439.953,297.649,420.984,279.081,410.212,255.522Z" transform="translate(-371.516 -255.522)" fill="#352c38" opacity="0.2" style="mix-blend-mode: multiply;isolation: isolate"/>
                </g>
              </g>
            </g>
          </g>
          <g id="Grupo_334" data-name="Grupo 334" transform="translate(0 100.235)">
            <g id="Grupo_330" data-name="Grupo 330" transform="translate(0 88.222)">
              <g id="Grupo_326" data-name="Grupo 326" transform="translate(118.974)">
                <g id="Grupo_324" data-name="Grupo 324" transform="translate(0 32.089)">
                  <path id="Trazado_2525" data-name="Trazado 2525" d="M444.608,175.555l-33.7,64.721s-58.981-32.361-67.406-32.361-48.449,1.044-29.49,9.4c0,0-8.426,5.22,1.053,7.307,0,0-8.426,7.307,2.106,8.351l24.225-1.044s48.448,43.844,72.673,50.107,63.194-75.16,63.194-75.16Z" transform="translate(-308.967 -175.555)" fill="#965450"/>
                  <path id="Trazado_2526" data-name="Trazado 2526" d="M388.565,222.029c5.363,1.9,10.754,3.833,16.184,5.645,6.646-11.792,10.96-20.8,10.96-20.8l-32.65-31.317-18.465,35.457A126.648,126.648,0,0,0,388.565,222.029Z" transform="translate(-247.418 -175.555)" fill="#76413b"/>
                </g>
                <g id="Grupo_325" data-name="Grupo 325" transform="translate(117.736)">
                  <path id="Trazado_2527" data-name="Trazado 2527" d="M424.894,160.957s-31.6-5.219-43.183,11.483-16.852,43.844-16.852,43.844l45.289,21.922Z" transform="translate(-364.86 -160.185)" fill="#ffa65b"/>
                  <path id="Trazado_2528" data-name="Trazado 2528" d="M407.588,206.51c-11.5-8.89-24.787-20.329-33.463-33.724a164.356,164.356,0,0,0-9.264,29.791L410.149,224.5l2.7-14.166C411.052,209.088,409.285,207.821,407.588,206.51Z" transform="translate(-364.86 -146.478)" fill="#161826" opacity="0.1" style="mix-blend-mode: multiply;isolation: isolate"/>
                </g>
              </g>
              <g id="Grupo_329" data-name="Grupo 329" transform="translate(0 15.463)">
                <g id="Grupo_327" data-name="Grupo 327" transform="translate(0 0)">
                  <path id="Trazado_2824" data-name="Trazado 2824" d="M19.7,0a19.823,19.823,0,0,1,19.81,19.675l.008,2.943a19.552,19.552,0,0,1-19.7,19.563h0A19.823,19.823,0,0,1,.008,22.506L0,19.563A19.552,19.552,0,0,1,19.7,0Z" transform="translate(25.978 21.154) rotate(-19.848)" fill="#c6a35d"/>
                  <path id="Trazado_2529" data-name="Trazado 2529" d="M347.714,178.386l-77.863,27.857a25.985,25.985,0,0,0-15.8,33.342l24.091,66.147a26.343,26.343,0,0,0,33.64,15.656l77.863-27.857a25.981,25.981,0,0,0,15.794-33.342l-24.09-66.147A26.345,26.345,0,0,0,347.714,178.386Zm50.193,87.956a10.393,10.393,0,0,1-6.319,13.337l-33.459-91.873a10.537,10.537,0,0,1,13.456,6.263Z" transform="translate(-252.487 -157.54)" fill="#ebc36c"/>
                  <path id="Trazado_2825" data-name="Trazado 2825" d="M10.013,0,38.991.082a10.076,10.076,0,0,1,10.07,10h0a9.939,9.939,0,0,1-10.013,9.945L10.07,19.946A10.077,10.077,0,0,1,0,9.944,9.939,9.939,0,0,1,10.013,0Z" transform="translate(19.053 16.657) rotate(-19.848)" fill="#051f38"/>
                </g>
                <g id="Grupo_328" data-name="Grupo 328" transform="translate(119.848 40.114)">
                  <path id="Trazado_2530" data-name="Trazado 2530" d="M309.382,194.528s13.367-4.581,15.49-1.981-11.118,6.316-10.619,6.562,14.366-2.848,15.615,0-14.741,8.048-14.741,8.048,15.116-4.086,16.114-.99-15.739,7.677-15.739,7.677L314.6,207l-.973-8.017Z" transform="translate(-309.382 -181.427)" fill="#965450"/>
                  <path id="Trazado_2531" data-name="Trazado 2531" d="M323.724,196.44s-10.244-6.81-10.368-9.286,27.357,9.038,27.357,9.038Z" transform="translate(-304.985 -186.805)" fill="#965450"/>
                </g>
              </g>
            </g>
            <g id="Grupo_332" data-name="Grupo 332" transform="translate(258.449)">
              <path id="Trazado_2532" data-name="Trazado 2532" d="M446.372,201.752c-2.037,3.791,8.228-83.823,8.228-83.823l-47.747,31.924s4.152,55.911-1.064,56.157c-2.14.1-10.4,3.034-19.392,6.455,2.123,10.433,6.231,12.685,9.806,22.675,26.84-.144,55.739-.76,72.218-25.156C459.078,207.228,449.127,196.626,446.372,201.752Z" transform="translate(-362.769 -117.929)" fill="#76413b"/>
              <g id="Grupo_331" data-name="Grupo 331" transform="translate(0 70.204)">
                <path id="Trazado_2533" data-name="Trazado 2533" d="M413.475,170.345l-2.106-7.307,52.661-11.483,2.107,12.527s63.194,20.878,71.62,67.853,4.213,77.248-5.266,92.907c0,0-73.726,10.439-105.323-5.219s-64.247-132.574-47.4-143.013A47.471,47.471,0,0,1,413.475,170.345Z" transform="translate(-375.18 -151.555)" fill="#ffa65b"/>
                <path id="Trazado_2534" data-name="Trazado 2534" d="M472.448,238.276c-25.246-1.491-56.228-4.451-77.25-19.938a91.73,91.73,0,0,1-11.019-9.593c9.433,23.091,21.3,42.856,33.031,48.668,31.6,15.658,105.323,5.219,105.323,5.219,4.2-6.94,7.36-16.765,8.849-29.628C512.523,238.723,492.679,239.47,472.448,238.276Z" transform="translate(-365.224 -89.346)" fill="#161826" opacity="0.1" style="mix-blend-mode: multiply;isolation: isolate"/>
              </g>
            </g>
            <g id="Grupo_333" data-name="Grupo 333" transform="translate(302.499 178.769)">
              <path id="Trazado_2535" data-name="Trazado 2535" d="M456.69,207.731l53.715-4.176s-13.692,93.95-29.49,126.311S392.443,489.582,420.881,418.6c0,0-36.863,55.326-5.266-1.044,0,0-34.757,44.887-4.213-3.132,0,0-35.81,40.712,2.106-16.7,0,0-28.437,13.571,3.16-9.4l30.543-79.336Z" transform="translate(-396.092 -203.555)" fill="#965450"/>
              <path id="Trazado_2536" data-name="Trazado 2536" d="M477.662,211.24c.765-4.85,1.177-7.685,1.177-7.685l-53.715,4.176-.5,5.38C442.3,213.052,459.99,212.309,477.662,211.24Z" transform="translate(-364.526 -203.555)" fill="#76413b"/>
            </g>
          </g>
          <g id="Grupo_340" data-name="Grupo 340" transform="translate(258.484)">
            <g id="Grupo_338" data-name="Grupo 338">
              <g id="Grupo_336" data-name="Grupo 336" transform="translate(0 39.575)">
                <path id="Trazado_2537" data-name="Trazado 2537" d="M402.238,93.553s26.843-15.521,65.989,9.975c25.988,16.926,24.606,70.945-31.316,106.419C370.212,252.256,402.238,93.553,402.238,93.553Z" transform="translate(-353.781 -88.874)" fill="#051f38"/>
                <g id="Grupo_335" data-name="Grupo 335" transform="translate(0 18.505)">
                  <path id="Trazado_2538" data-name="Trazado 2538" d="M460.73,112.71s-30.137-23.26-55.754-11.8c-32.525,14.554-29.117,48.554-29.762,77.682-.854,38.547,29.9,45.873,39.155,46.349C428.157,225.653,483.856,222.386,460.73,112.71Z" transform="translate(-375.197 -97.737)" fill="#965450"/>
                  <path id="Trazado_2539" data-name="Trazado 2539" d="M419.474,123.791s1.26-5.927,11.388-1.182c12.845,6.019,5.906,36.524-8.529,35.749S419.474,123.791,419.474,123.791Z" transform="translate(-331.064 -72.685)" fill="#965450"/>
                </g>
              </g>
              <g id="Grupo_337" data-name="Grupo 337" transform="translate(16.812)">
                <path id="Trazado_2540" data-name="Trazado 2540" d="M421.627,130.826s1.757,20.857-3.2,21.162-10.322-37.816,3.613-37.687S421.627,130.826,421.627,130.826Z" transform="translate(-350.029 -21.64)" fill="#051f38"/>
                <path id="Trazado_2541" data-name="Trazado 2541" d="M454.776,156.518s-10.408-46.422-71.6-38.72c0,0,8.866-17.3,28.254-25.4,26.406-11.024,65.751,33.425,54.732,62.934C466.164,155.336,461.246,155.858,454.776,156.518Z" transform="translate(-383.178 -47.332)" fill="#ffa65b"/>
                <path id="Trazado_2542" data-name="Trazado 2542" d="M429.724,136.342s-3.356-55.427,10.064-55.427-1.118,46.558-1.118,46.558,11.185-66.511,43.621-56.535S458.8,127.473,458.8,127.473s25.725-23.279,34.67-15.518-36.907,23.279-36.907,23.279,34.672-9.978,39.144,6.652S428.606,156.3,429.724,136.342Z" transform="translate(-332.089 -69.919)" fill="#051f38"/>
              </g>
            </g>
            <g id="Grupo_339" data-name="Grupo 339" transform="translate(1.76 91.609)">
              <path id="Trazado_2543" data-name="Trazado 2543" d="M376.032,119.91s11.806-13.339,23.407,2.119" transform="translate(-376.032 -112.965)" fill="none" stroke="#051f38" stroke-miterlimit="10" stroke-width="3"/>
              <path id="Trazado_2544" data-name="Trazado 2544" d="M383.689,144.618s34.548,1,36.785.633S401.261,161.55,383.689,144.618Z" transform="translate(-367.56 -80.271)" fill="#fff"/>
              <path id="Trazado_2545" data-name="Trazado 2545" d="M392.39,126.957c-.992,3.4-2.892,8.89-6.555,10.284-7.05,2.683-8.4-6.854-7.721-11.5" transform="translate(-373.9 -100.804)" fill="none" stroke="#1f2733" stroke-miterlimit="10" stroke-width="0.973"/>
              <path id="Trazado_2546" data-name="Trazado 2546" d="M408.894,128.238c-.992,3.4-2.89,8.89-6.555,10.282-7.05,2.683-8.4-6.854-7.72-11.5" transform="translate(-355.64 -99.413)" fill="none" stroke="#1f2733" stroke-miterlimit="10" stroke-width="0.973"/>
              <path id="Trazado_2547" data-name="Trazado 2547" d="M420.053,148.407s6.77-6.382-.044-8.946c0,0-3.577-15.907,2.363-14.961a6.416,6.416,0,0,1,5.694,6.533" transform="translate(-328.555 -102.199)" fill="none" stroke="#76413b" stroke-miterlimit="10" stroke-width="0.935"/>
              <path id="Trazado_2548" data-name="Trazado 2548" d="M390.773,161.064l-8.507-4.149,11.451-36.063" transform="translate(-369.135 -106.123)" fill="none" stroke="#76413b" stroke-miterlimit="10" stroke-width="1.946"/>
              <path id="Trazado_2549" data-name="Trazado 2549" d="M392.2,118.246s16.057-12.333,31.009,4.071" transform="translate(-358.143 -113.797)" fill="none" stroke="#051f38" stroke-miterlimit="10" stroke-width="3"/>
            </g>
          </g>
        </g>
        <g id="Grupo_349" data-name="Grupo 349" transform="translate(17.751 439.014)">
          <g id="Grupo_344" data-name="Grupo 344">
            <g id="Grupo_342" data-name="Grupo 342" transform="translate(25.307 313.128)">
              <path id="Trazado_2550" data-name="Trazado 2550" d="M393.279,488a13.8,13.8,0,0,1-13.688,13.9h0a13.8,13.8,0,0,1-14.025-13.569l-.543-44.252a13.793,13.793,0,0,1,13.688-13.9h0a13.8,13.8,0,0,1,14.025,13.569Z" transform="translate(-171.029 -430.176)" fill="#091e1d"/>
              <path id="Trazado_2551" data-name="Trazado 2551" d="M301.185,489.118a13.793,13.793,0,0,1-13.688,13.9h0a13.8,13.8,0,0,1-14.025-13.567l-.543-44.255a13.8,13.8,0,0,1,13.69-13.9h0a13.8,13.8,0,0,1,14.024,13.569Z" transform="translate(-272.927 -428.959)" fill="#091e1d"/>
            </g>
            <g id="Grupo_343" data-name="Grupo 343">
              <path id="Trazado_2552" data-name="Trazado 2552" d="M479.3,611.409a31.121,31.121,0,0,1-30.883,31.363l-129.735,1.562a31.132,31.132,0,0,1-31.641-30.607L273.058,321.048a31.117,31.117,0,0,1,30.883-31.36l150.521-1.814A31.136,31.136,0,0,1,486.1,318.482Z" transform="translate(-247.479 -271.847)" fill="#ffa65b"/>
              <path id="Trazado_2553" data-name="Trazado 2553" d="M485.427,347.594l.677-29.112a31.136,31.136,0,0,0-31.641-30.609l-150.521,1.814a31.117,31.117,0,0,0-30.883,31.36l1.39,29.087Z" transform="translate(-247.479 -271.847)" fill="#161826" opacity="0.1" style="mix-blend-mode: multiply;isolation: isolate"/>
              <path id="Trazado_2554" data-name="Trazado 2554" d="M524.568,319.579a8.621,8.621,0,0,1-8.554,8.687l-245.954,2.963a8.626,8.626,0,0,1-8.765-8.48l-.38-30.9a8.624,8.624,0,0,1,8.557-8.689L515.423,280.2a8.625,8.625,0,0,1,8.765,8.481Z" transform="translate(-260.914 -280.196)" fill="#ffa65b"/>
            </g>
          </g>
          <g id="Grupo_348" data-name="Grupo 348" transform="translate(90.478 98.223)">
            <g id="Grupo_345" data-name="Grupo 345" transform="translate(12.84)">
              <path id="Trazado_2555" data-name="Trazado 2555" d="M324.131,349.012l28.534-16.978-6.915,17.757Z" transform="translate(-294.284 -322.03)" fill="#fff"/>
              <path id="Trazado_2556" data-name="Trazado 2556" d="M318.995,327.323s2.306-.027,5.94,5.334,11.573,20.03,11.573,20.03l14.608-6.413,3.286-5.654s-6.237-12.608-11.282-13.378Z" transform="translate(-299.967 -327.242)" fill="#fff"/>
              <path id="Trazado_2557" data-name="Trazado 2557" d="M321.065,330.724s4.346-4.835,7.941-2.384,9.81,12.982,9.81,12.982l-10.269,18-18.585-10.172Z" transform="translate(-309.962 -326.803)" fill="#fff"/>
            </g>
            <g id="Grupo_346" data-name="Grupo 346" transform="translate(44.713 25.55)">
              <path id="Trazado_2558" data-name="Trazado 2558" d="M336.043,350.9l1.54,32.95-12.49-14.459Z" transform="translate(-325.093 -327.058)" fill="#fff"/>
              <path id="Trazado_2559" data-name="Trazado 2559" d="M360.916,352.493s-1.07,2.025-7.556,2.649-23.281.593-23.281.593l-1.234,15.788,3.461,5.551s14.157.539,17.237-3.495Z" transform="translate(-320.942 -325.325)" fill="#fff"/>
              <path id="Trazado_2560" data-name="Trazado 2560" d="M359.447,357.911s2.233,6.088-1.651,8.062-16.184,2.4-16.184,2.4l-11.12-17.5,17.854-11.387Z" transform="translate(-319.12 -339.48)" fill="#fff"/>
            </g>
            <g id="Grupo_347" data-name="Grupo 347" transform="translate(0 30.22)">
              <path id="Trazado_2561" data-name="Trazado 2561" d="M333.827,360.417l-29.479-15.31,18.9-3.391Z" transform="translate(-303.333 -341.717)" fill="#fff"/>
              <path id="Trazado_2562" data-name="Trazado 2562" d="M316.818,381.069s-1.226-1.937,1.5-7.8,11.232-20.223,11.232-20.223l-13.129-9.023-6.581.161s-7.617,11.844-5.654,16.512Z" transform="translate(-303.866 -339.21)" fill="#fff"/>
              <path id="Trazado_2563" data-name="Trazado 2563" d="M316.8,375.079s-6.429-1.163-6.188-5.483,6.079-15.059,6.079-15.059l20.856-.68.91,21.024Z" transform="translate(-296.414 -328.51)" fill="#fff"/>
            </g>
          </g>
        </g>
      </g>
      <g id="Grupo_390" data-name="Grupo 390" transform="translate(0 0)">
        <g id="Grupo_380" data-name="Grupo 380">
          <g id="Grupo_357" data-name="Grupo 357" transform="translate(0 368.925)">
            <g id="Grupo_352" data-name="Grupo 352" transform="translate(0 437.077)">
              <path id="Trazado_2564" data-name="Trazado 2564" d="M150.01,418.31s-4.6,73.751-8.7,75.16c-15.4,5.308-131.42,34.536-21.646-14.527l-2.989-53.673Z" transform="translate(-72.943 -418.31)" fill="#051f38"/>
              <path id="Trazado_2565" data-name="Trazado 2565" d="M122.168,475.447c2.69-22.243,4.868-57.136,4.868-57.136l-33.33,6.96,2.66,47.792C104.63,475.336,114.208,475.392,122.168,475.447Z" transform="translate(-49.97 -418.31)" fill="#041523"/>
              <g id="Grupo_351" data-name="Grupo 351" transform="translate(0.007 73.565)">
                <path id="Trazado_2566" data-name="Trazado 2566" d="M73.08,466.244c-3.354,8.234,57.388-7.366,68.23-11.1.316-.109.634-.691.954-1.595C128.575,457.308,87.164,466.672,73.08,466.244Z" transform="translate(-72.947 -453.546)" fill="#fff"/>
              </g>
            </g>
            <g id="Grupo_354" data-name="Grupo 354" transform="translate(147.972 433.14)">
              <path id="Trazado_2567" data-name="Trazado 2567" d="M143.19,416.425s6.161,73.645,10.282,74.975c15.506,5,132.124,31.966,21.336-14.946l1.854-53.721Z" transform="translate(-143.19 -416.423)" fill="#051f38"/>
              <path id="Trazado_2568" data-name="Trazado 2568" d="M149.267,473.453c-3.162-22.187-6.077-57.029-6.077-57.029l33.472,6.309-1.652,47.835C166.8,473,157.221,473.245,149.267,473.453Z" transform="translate(-143.19 -416.424)" fill="#041523"/>
              <g id="Grupo_353" data-name="Grupo 353" transform="translate(9.296 73.4)">
                <path id="Trazado_2569" data-name="Trazado 2569" d="M217.042,462.926c3.526,8.167-57.534-6.245-68.453-9.769-.318-.1-.649-.68-.986-1.576C161.369,455.074,202.969,463.63,217.042,462.926Z" transform="translate(-147.603 -451.581)" fill="#fff"/>
              </g>
            </g>
            <g id="Grupo_356" data-name="Grupo 356" transform="translate(27.611)">
              <path id="Trazado_2570" data-name="Trazado 2570" d="M226.8,244.21s30.259,242.818,24.33,439.275c0,0-36.159,10.107-45.706,2.752-8.182-46.587-7.082-137.068-19.354-204.5-11.556-63.488-16.131-115.351-16.131-115.351l-3.872-4.177S141.2,669.139,135.742,692.432c-31.363,7.355-41.291-1.24-41.291-1.24s-14.315-383.9-5.57-445.857C100.341,164.154,226.8,244.21,226.8,244.21Z" transform="translate(-86.051 -208.96)" fill="#ffa65b"/>
              <g id="Grupo_355" data-name="Grupo 355" transform="translate(0.598)">
                <path id="Trazado_2571" data-name="Trazado 2571" d="M232.083,294.377c-3.252-31.356-5.6-50.168-5.6-50.168s-126.459-80.056-137.918,1.125c-1.064,7.526-1.784,19.813-2.233,35.576C95.513,286.118,213.845,302.843,232.083,294.377Z" transform="translate(-86.335 -208.96)" fill="#161826" opacity="0.1" style="mix-blend-mode: multiply;isolation: isolate"/>
                <path id="Trazado_2572" data-name="Trazado 2572" d="M124.691,293.619c1.384,16.464,9.094,69.747,18.625,122.109,12.272,67.429,11.173,157.909,19.354,204.5,9.546,7.355,45.706-2.752,45.706-2.752,3.646-120.843-6.4-259.2-14.669-347.827C173.563,282.023,148.117,288.137,124.691,293.619Z" transform="translate(-43.896 -142.949)" fill="#161826" opacity="0.1" style="mix-blend-mode: multiply;isolation: isolate"/>
              </g>
            </g>
          </g>
          <g id="Grupo_364" data-name="Grupo 364" transform="translate(25.304)">
            <g id="Grupo_358" data-name="Grupo 358" transform="translate(0 118.977)">
              <path id="Trazado_2573" data-name="Trazado 2573" d="M179.481,162.109c.118-25.45,2.083-59.016,2.083-59.016L130.953,89.241s1.691,45.491,3.155,73.21c-23.034,7.8-49.152,22.352-49.152,22.352l95.467,23.982,33.96-32.651A261.846,261.846,0,0,0,179.481,162.109Z" transform="translate(-84.956 -89.241)" fill="#ffb39f"/>
              <path id="Trazado_2574" data-name="Trazado 2574" d="M179.481,162.109c.118-25.45,2.083-59.016,2.083-59.016L130.953,89.241s1.691,45.491,3.155,73.21c-23.034,7.8-49.152,22.352-49.152,22.352l95.467,23.982,45.112-38.509S197.449,159.837,179.481,162.109Z" transform="translate(-84.956 -89.241)" fill="#e09b8d"/>
            </g>
            <g id="Grupo_361" data-name="Grupo 361" transform="translate(9.725)">
              <g id="Grupo_359" data-name="Grupo 359" transform="translate(18.351 34.073)">
                <path id="Trazado_2575" data-name="Trazado 2575" d="M104.925,85.216S118.231,42.532,153.2,49.3s40.128,51.94,44.548,82.539-5.508,58.237-32.9,61.556C141.057,196.285,99.463,191.666,104.925,85.216Z" transform="translate(-91.479 -48.574)" fill="#ffb39f"/>
                <path id="Trazado_2576" data-name="Trazado 2576" d="M113.429,84.393s-2.094-5.679-10.718.593c-10.941,7.952.253,37.1,13.481,34.094S113.429,84.393,113.429,84.393Z" transform="translate(-98.285 -12.175)" fill="#ffb39f"/>
              </g>
              <g id="Grupo_360" data-name="Grupo 360">
                <path id="Trazado_2577" data-name="Trazado 2577" d="M110.962,54.811c.739-.115,17.25-1.524,6.286-.449,10.046,10.854,9.056,13.489,22.969,16.091,7.322,22.454-7.065,36.146-7.065,36.146l3.926,27.047-10.444,1.1s.135-18.788-7.819-20.4-10.357,7.954-10.357,7.954C91.73,101.459,74.921,60.478,110.962,54.811Z" transform="translate(-89.573 -8.642)" fill="#051f38"/>
                <path id="Trazado_2578" data-name="Trazado 2578" d="M197.627,63.308c6.688-16.464-4.7-31.054-4.7-31.054a23.257,23.257,0,0,1-.872,16.3,39.069,39.069,0,0,0-7.861-14.627s1.2,16.6-21.8,14.525-63.145,1.1-64.858,36.3,32.574,9.669,32.574,9.669,68.5,19.043,78.32-35.639Z" transform="translate(-80.832 -32.254)" fill="#051f38"/>
              </g>
            </g>
            <g id="Grupo_363" data-name="Grupo 363" transform="translate(31.9 84.748)">
              <path id="Trazado_2579" data-name="Trazado 2579" d="M145.709,78.651s-16.138-12.243-30.759,3.67" transform="translate(-83.668 -71.424)" fill="none" stroke="#051f38" stroke-miterlimit="10" stroke-width="3"/>
              <path id="Trazado_2580" data-name="Trazado 2580" d="M158.81,79.051s-10.882-14.015-23.352.084" transform="translate(-60.977 -72.846)" fill="none" stroke="#051f38" stroke-miterlimit="10" stroke-width="3"/>
              <path id="Trazado_2581" data-name="Trazado 2581" d="M134.205,76.94s5.62,22.838,12.93,33.92l-11.158,6.307" transform="translate(-62.364 -68.393)" fill="none" stroke="#dd9078" stroke-miterlimit="10" stroke-width="1"/>
              <path id="Trazado_2582" data-name="Trazado 2582" d="M110.944,109.879s-7.7-5.581-1.443-9.383c0,0,.868-17.253-4.8-15.289s-4.5,7.775-4.5,7.775" transform="translate(-100.1 -59.57)" fill="none" stroke="#dd9078" stroke-miterlimit="10" stroke-width="0.949"/>
              <path id="Trazado_2583" data-name="Trazado 2583" d="M120.85,87.262c1.626,14.42,17.216,10.852,13.643-2.854" transform="translate(-77.14 -60.27)" fill="none" stroke="#1f2733" stroke-miterlimit="10" stroke-width="1"/>
              <path id="Trazado_2584" data-name="Trazado 2584" d="M139.008,84.264c1.626,14.418,17.216,10.85,13.644-2.856" transform="translate(-57.049 -63.533)" fill="none" stroke="#1f2733" stroke-miterlimit="10" stroke-width="1"/>
              <g id="Grupo_362" data-name="Grupo 362" transform="translate(47.025 47.134)">
                <path id="Trazado_2585" data-name="Trazado 2585" d="M124.5,110.7s-3.857-12.9,3.859-15.055,10.2,11.71,10.2,11.71S129.189,105.685,124.5,110.7Z" transform="translate(-121.191 -95.422)" fill="#d15e5e"/>
                <path id="Trazado_2586" data-name="Trazado 2586" d="M159.184,109.881c2.2.62-17.627-18.109-36.76-3.585" transform="translate(-122.424 -89.613)" fill="none" stroke="#dd9078" stroke-miterlimit="10" stroke-width="1"/>
              </g>
            </g>
          </g>
          <g id="Grupo_379" data-name="Grupo 379" transform="translate(13.124 190.857)">
            <g id="Grupo_366" data-name="Grupo 366">
              <path id="Trazado_2587" data-name="Trazado 2587" d="M138.091,123.943s53.93-5.733,60.952,35.328,6.319,52.195,6.319,52.195L152.7,203.809Z" transform="translate(-13.984 -123.67)" fill="#0a3b77"/>
              <g id="Grupo_365" data-name="Grupo 365" transform="translate(0 0.273)">
                <path id="Trazado_2588" data-name="Trazado 2588" d="M248.862,156.878c-3.158-26.078-29.977-31.83-45.582-33.077-7.012,9.562-16.639,16.564-30.017,16.976-15.112.466-29.01-4.873-36.393-16.2-23.658,2.735-46.985,9.5-52.312,25.335-11.234,33.4-1.405,217.13-1.405,217.13s94.441,16.007,171.853,1.392C255.007,368.439,253.075,191.673,248.862,156.878Z" transform="translate(-79.174 -123.801)" fill="#0a3b77"/>
                <path id="Trazado_2589" data-name="Trazado 2589" d="M79.187,211.47c.343,60.6,3.952,128.061,3.952,128.061s94.441,16.007,171.853,1.393c0,0-1.468-134.318-4.636-191.826Q164.893,180.608,79.187,211.47Z" transform="translate(-79.159 -96.284)" fill="#352c38" opacity="0.2" style="mix-blend-mode: multiply;isolation: isolate"/>
              </g>
            </g>
            <g id="Grupo_378" data-name="Grupo 378" transform="translate(2.577 69.175)">
              <g id="Grupo_375" data-name="Grupo 375" transform="translate(51.095)">
                <g id="Grupo_368" data-name="Grupo 368" transform="translate(3.608 55.736)">
                  <path id="Trazado_2590" data-name="Trazado 2590" d="M106.914,222.457s-2.005-5.961,7.617-9.934,109.441-29.8,115.855-29.006,83.551,10.126,84.871,14.2-92.488,34.273-92.488,34.273Z" transform="translate(-105.952 -183.499)" fill="#e1edff"/>
                  <g id="Grupo_367" data-name="Grupo 367" transform="translate(0 12.705)">
                    <path id="Trazado_2591" data-name="Trazado 2591" d="M228.4,233.32s-109.325-.466-117.751-10.207-8.569-16.819,39.178-8.468,75.367,7.153,75.367,7.153,87.675-40.44,90.483-30.7S327.816,198.354,228.4,233.32Z" transform="translate(-106.366 -189.585)" fill="#c0d5ff"/>
                    <path id="Trazado_2592" data-name="Trazado 2592" d="M253.723,191.1c-2.808-9.742-90.483,30.7-90.483,30.7s-.307.012-.885.025c1.818,3.662,3.463,7.395,4.982,11.184C265.8,198.373,256.522,200.814,253.723,191.1Z" transform="translate(-44.417 -189.585)" fill="#b1c5e8"/>
                  </g>
                </g>
                <g id="Grupo_370" data-name="Grupo 370" transform="translate(0.401 33.486)">
                  <path id="Trazado_2593" data-name="Trazado 2593" d="M105.391,211.8s-2-5.958,7.617-9.931,109.443-29.8,115.857-29.006,83.551,10.126,84.871,14.2-92.488,34.273-92.488,34.273Z" transform="translate(-104.429 -172.842)" fill="#e1edff"/>
                  <g id="Grupo_369" data-name="Grupo 369" transform="translate(0 12.704)">
                    <path id="Trazado_2594" data-name="Trazado 2594" d="M226.874,222.661s-109.327-.463-117.753-10.207-8.567-16.819,39.178-8.468,75.367,7.153,75.367,7.153,87.675-40.44,90.485-30.7S326.293,187.7,226.874,222.661Z" transform="translate(-104.843 -178.927)" fill="#c0d5ff"/>
                    <path id="Trazado_2595" data-name="Trazado 2595" d="M252.2,180.442c-2.81-9.744-90.485,30.7-90.485,30.7s-.307.013-.882.027c1.818,3.66,3.461,7.395,4.98,11.182C264.275,187.716,255,190.155,252.2,180.442Z" transform="translate(-42.893 -178.927)" fill="#b1c5e8"/>
                  </g>
                </g>
                <g id="Grupo_372" data-name="Grupo 372" transform="translate(0 19.976)">
                  <path id="Trazado_2596" data-name="Trazado 2596" d="M105.183,200.667s-1.94-5.247,7.37-8.746,105.907-26.233,112.112-25.534,80.852,8.915,82.129,12.5-89.5,30.171-89.5,30.171Z" transform="translate(-104.253 -166.371)" fill="#e1edff"/>
                  <g id="Grupo_371" data-name="Grupo 371" transform="translate(0 11.184)">
                    <path id="Trazado_2597" data-name="Trazado 2597" d="M222.739,210.229s-105.793-.407-113.947-8.986-8.291-14.8,37.912-7.454,72.932,6.3,72.932,6.3,84.842-35.6,87.559-27.024S318.947,179.448,222.739,210.229Z" transform="translate(-104.653 -171.728)" fill="#c0d5ff"/>
                    <path id="Trazado_2598" data-name="Trazado 2598" d="M247.248,173.062c-2.717-8.577-87.559,27.024-87.559,27.024s-.3.01-.855.023c1.759,3.221,3.349,6.51,4.82,9.844C258.932,179.465,249.956,181.613,247.248,173.062Z" transform="translate(-44.705 -171.728)" fill="#b1c5e8"/>
                  </g>
                </g>
                <g id="Grupo_374" data-name="Grupo 374" transform="translate(2.931)">
                  <path id="Trazado_2599" data-name="Trazado 2599" d="M106.548,186.641s-1.74-5.315,7.7-8.464,106.825-22.273,113-21.341,80.456,11.919,81.6,15.552-90.58,26.817-90.58,26.817Z" transform="translate(-105.627 -156.803)" fill="#fff"/>
                  <g id="Grupo_373" data-name="Grupo 373" transform="translate(0 14.11)">
                    <path id="Trazado_2600" data-name="Trazado 2600" d="M223.453,199.032s-105.7-4.349-113.526-13.222-7.722-15.105,38.169-6.038,72.641,9.007,72.641,9.007,86.131-32.415,88.522-23.742S320.759,171.855,223.453,199.032Z" transform="translate(-106.045 -163.562)" fill="#c0d5ff"/>
                    <path id="Trazado_2601" data-name="Trazado 2601" d="M249.464,165.036c-2.391-8.673-88.522,23.742-88.522,23.742s-.3,0-.855-.008c1.635,3.286,3.1,6.631,4.443,10.017C260.9,171.87,251.846,173.682,249.464,165.036Z" transform="translate(-46.249 -163.562)" fill="#b1c5e8"/>
                  </g>
                </g>
              </g>
              <g id="Grupo_377" data-name="Grupo 377" transform="translate(0 21.241)">
                <path id="Trazado_2602" data-name="Trazado 2602" d="M80.4,179.5l51.958-12.527s11.236,75.16,14.044,79.336,89.876,8.351,89.876,8.351l25.277,1.393S154.825,300.6,123.929,282.5,80.4,179.5,80.4,179.5Z" transform="translate(-80.397 -166.977)" fill="#ffb39f"/>
                <path id="Trazado_2603" data-name="Trazado 2603" d="M85.49,188.452c15.95-4.894,31.662-10.681,47.966-14.212-.687-4.489-1.1-7.263-1.1-7.263L80.4,179.5s.565,3.793,1.744,9.934C83.258,189.108,84.376,188.794,85.49,188.452Z" transform="translate(-80.397 -166.977)" fill="#e09b8d"/>
                <g id="Grupo_376" data-name="Grupo 376" transform="translate(121.648 35.725)">
                  <path id="Trazado_2604" data-name="Trazado 2604" d="M188.175,233.252s39.5-10.439,39.5-18.268-14.219-36.536-4.213,1.566c0,0-21.065-51.673-4.213,2.61,0,0-16.325-42.278-5.266,1.044,0,0-16.852-29.229-4.739,2.088l-15.118,5.545-36.49-.326L138.147,246.3Z" transform="translate(-138.147 -172.938)" fill="#ffb39f"/>
                  <path id="Trazado_2605" data-name="Trazado 2605" d="M220.159,206.3s-21.065-51.673-4.213,2.61c0,0-16.325-42.278-5.266,1.044,0,0-16.852-29.229-6.031,2.23l-11.642,5.368a39.019,39.019,0,0,0,14.044-1.278c13.471-2.7,17.321-7.318,17.321-11.539C224.372,196.9,210.154,168.2,220.159,206.3Z" transform="translate(-77.447 -184.088)" fill="#ffb39f"/>
                </g>
              </g>
            </g>
          </g>
        </g>
        <g id="Grupo_389" data-name="Grupo 389" transform="translate(86.319 517.649)">
          <g id="Grupo_388" data-name="Grupo 388">
            <g id="Grupo_383" data-name="Grupo 383">
              <g id="Grupo_381" data-name="Grupo 381" transform="translate(25.307 313.128)">
                <path id="Trazado_2606" data-name="Trazado 2606" d="M246.285,488A13.8,13.8,0,0,1,232.6,501.9h0a13.8,13.8,0,0,1-14.025-13.569l-.544-44.252a13.793,13.793,0,0,1,13.688-13.9h0a13.8,13.8,0,0,1,14.025,13.569Z" transform="translate(-24.038 -430.176)" fill="#091e1d"/>
                <path id="Trazado_2607" data-name="Trazado 2607" d="M154.193,489.118a13.8,13.8,0,0,1-13.69,13.9h0a13.8,13.8,0,0,1-14.025-13.567l-.541-44.255a13.8,13.8,0,0,1,13.688-13.9h0a13.8,13.8,0,0,1,14.025,13.569Z" transform="translate(-125.936 -428.959)" fill="#091e1d"/>
              </g>
              <g id="Grupo_382" data-name="Grupo 382">
                <path id="Trazado_2608" data-name="Trazado 2608" d="M332.308,611.409a31.118,31.118,0,0,1-30.881,31.363L171.69,644.333a31.133,31.133,0,0,1-31.641-30.607L126.066,321.048a31.115,31.115,0,0,1,30.881-31.36l150.521-1.814a31.134,31.134,0,0,1,31.641,30.609Z" transform="translate(-100.487 -271.847)" fill="#0a3b77"/>
                <path id="Trazado_2609" data-name="Trazado 2609" d="M338.433,347.594l.676-29.112a31.134,31.134,0,0,0-31.641-30.609l-150.521,1.814a31.115,31.115,0,0,0-30.881,31.36l1.39,29.087Z" transform="translate(-100.487 -271.847)" fill="#08325b"/>
                <path id="Trazado_2610" data-name="Trazado 2610" d="M377.575,319.579a8.623,8.623,0,0,1-8.557,8.687l-245.952,2.963a8.624,8.624,0,0,1-8.765-8.48l-.379-30.9a8.62,8.62,0,0,1,8.554-8.689L368.429,280.2a8.628,8.628,0,0,1,8.767,8.481Z" transform="translate(-113.922 -280.196)" fill="#0a3b77"/>
              </g>
            </g>
            <g id="Grupo_387" data-name="Grupo 387" transform="translate(90.477 98.223)">
              <g id="Grupo_384" data-name="Grupo 384" transform="translate(12.839)">
                <path id="Trazado_2611" data-name="Trazado 2611" d="M177.139,349.012l28.533-16.978-6.915,17.757Z" transform="translate(-147.291 -322.03)" fill="#fff"/>
                <path id="Trazado_2612" data-name="Trazado 2612" d="M172,327.323s2.309-.027,5.94,5.334,11.575,20.03,11.575,20.03l14.606-6.413,3.288-5.654s-6.239-12.608-11.284-13.378Z" transform="translate(-152.974 -327.242)" fill="#fff"/>
                <path id="Trazado_2613" data-name="Trazado 2613" d="M174.072,330.724s4.346-4.835,7.944-2.384,9.81,12.982,9.81,12.982l-10.269,18-18.587-10.172Z" transform="translate(-162.969 -326.803)" fill="#fff"/>
              </g>
              <g id="Grupo_385" data-name="Grupo 385" transform="translate(44.713 25.55)">
                <path id="Trazado_2614" data-name="Trazado 2614" d="M189.05,350.9l1.54,32.95L178.1,369.391Z" transform="translate(-178.1 -327.058)" fill="#fff"/>
                <path id="Trazado_2615" data-name="Trazado 2615" d="M213.925,352.493s-1.07,2.025-7.556,2.649-23.283.593-23.283.593l-1.234,15.788,3.461,5.551s14.16.539,17.237-3.495Z" transform="translate(-173.949 -325.325)" fill="#fff"/>
                <path id="Trazado_2616" data-name="Trazado 2616" d="M212.454,357.911s2.231,6.088-1.654,8.062-16.184,2.4-16.184,2.4l-11.118-17.5,17.854-11.387Z" transform="translate(-172.127 -339.48)" fill="#fff"/>
              </g>
              <g id="Grupo_386" data-name="Grupo 386" transform="translate(0 30.22)">
                <path id="Trazado_2617" data-name="Trazado 2617" d="M186.834,360.417l-29.478-15.31,18.9-3.391Z" transform="translate(-156.34 -341.717)" fill="#fff"/>
                <path id="Trazado_2618" data-name="Trazado 2618" d="M169.825,381.069s-1.226-1.937,1.5-7.8,11.232-20.223,11.232-20.223l-13.13-9.023-6.581.161s-7.615,11.844-5.654,16.512Z" transform="translate(-156.874 -339.21)" fill="#fff"/>
                <path id="Trazado_2619" data-name="Trazado 2619" d="M169.8,375.079s-6.427-1.163-6.187-5.483,6.077-15.059,6.077-15.059l20.856-.68.912,21.024Z" transform="translate(-149.42 -328.51)" fill="#fff"/>
              </g>
            </g>
          </g>
        </g>
      </g>
    </g>
  </g>
</svg>
